<?xml version="1.0" encoding="utf-8"?>
<!-- Generator: Adobe Illustrator 26.0.1, SVG Export Plug-In . SVG Version: 6.00 Build 0)  -->
<svg version="1.1" id="Layer_1" xmlns="http://www.w3.org/2000/svg" xmlns:xlink="http://www.w3.org/1999/xlink" x="0px" y="0px"
	 viewBox="0 0 525 100" style="enable-background:new 0 0 525 100;" xml:space="preserve">
<style type="text/css">
	.st0{stroke:#666666;stroke-width:0.625;stroke-miterlimit:12.5;}
	.st1{fill:none;stroke:#666666;stroke-width:0.625;stroke-miterlimit:12.5;}
	.st2{fill:#1672B9;}
	.st3{fill:#FFFFFF;}
</style>
<g id="PPS">
	<path id="pension_processing_system" d="M154.3,75.6c-1,0-2.1,0.1-3.1,0.3V88h1.5V83c1.8,0.3,3.7-0.1,5.1-1.3c0.7-0.7,1-1.7,1-2.7
		s-0.3-2-1.1-2.5C156.7,75.9,155.5,75.5,154.3,75.6z M154.2,81.9c-0.4,0-0.8,0-1.3-0.1V77c0.6-0.1,1-0.1,1.5-0.1c1.7,0,3,0.8,3,2.4
		S156,81.9,154.2,81.9z M163.5,79c-2.4,0-4.4,2.1-4.2,4.5c0,0.1,0,0.3,0,0.3c-0.1,2.2,1.4,4.2,3.7,4.5c0.1,0,0.4,0,0.6,0
		c1,0,2-0.1,3-0.6l-0.3-1.1c-0.8,0.3-1.5,0.4-2.4,0.4c-1.5,0.1-3-1-3.1-2.5c0-0.1,0-0.3,0-0.6h6.2c0-0.3,0-0.6,0-0.7
		c0.3-2-1-3.8-3-4.1C163.9,79,163.6,79,163.5,79z M160.9,82.8c0-1.4,1.1-2.5,2.5-2.7c1.3,0,2.2,1,2.2,2.2l0,0c0,0.1,0,0.1,0,0.3
		h-4.8V82.8z M173,79c-1.3,0-2.4,0.6-3,1.7l0,0l-0.1-1.4h-1.4c0,0.7,0,1.4,0,2.4V88h1.5v-5.3c0-0.3,0-0.6,0.1-0.7
		c0.3-1,1.1-1.7,2.1-1.7c1.5,0,2.1,1.1,2.1,2.7V88h1.5v-5.2C176.3,79.7,174.3,79,173,79z M181.2,82.9c-1.1-0.4-1.7-0.8-1.7-1.5
		s0.6-1.3,1.5-1.3c0.7,0,1.3,0.1,1.8,0.6l0.4-1.1c-0.7-0.4-1.4-0.6-2.2-0.6c-1.5-0.3-2.8,0.8-3.1,2.2l0,0c0,0.1,0,0.1,0,0.3
		c0,1.1,0.7,2,2.4,2.5c1.1,0.4,1.7,0.8,1.7,1.7c0,0.8-0.6,1.3-1.7,1.3c-0.7,0-1.5-0.3-2.1-0.7l-0.4,1.3c0.7,0.4,1.7,0.6,2.5,0.6
		c2.1,0,3.4-1.1,3.4-2.7C183.6,84.2,182.7,83.5,181.2,82.9z M186,75.7c-0.6,0-1,0.4-1,1c0,0,0,0,0,0.1l0,0c0,0.6,0.4,1,1,1l0,0l0,0
		c0.6,0,1-0.4,1-0.8l0,0v-0.3c0-0.6-0.3-1-0.8-1H186z M185.1,79.1h1.5V88h-1.5V79.1z M192.7,79c-2.4,0-4.4,1.8-4.4,4.2l0,0
		c0,0.1,0,0.3,0,0.4c-0.1,2.4,1.5,4.4,3.9,4.5h0.3c2.4,0,4.4-1.8,4.4-4.2c0-0.1,0-0.3,0-0.4c0.1-2.4-1.5-4.4-3.9-4.5H192.7z
		 M192.6,87c-1.5,0-2.7-1.4-2.7-3.4c0-1.7,0.8-3.4,2.7-3.4c1.8,0,2.7,1.8,2.7,3.4C195.4,85.6,194.1,87,192.6,87z M203,79
		c-1.3,0-2.4,0.6-3,1.7l0,0l-0.1-1.4h-1.4c0,0.7,0.1,1.4,0.1,2.4V88h1.5v-5.3c0-0.3,0-0.6,0.1-0.7c0.3-1,1.1-1.7,2.1-1.7
		c1.5,0,2.1,1.1,2.1,2.7V88h1.5v-5.2C206.1,79.7,204.1,79,203,79z M214.8,75.6c-1,0-2.1,0.1-3.1,0.3V88h1.5V83
		c1.8,0.3,3.7-0.1,5.1-1.3c0.7-0.7,1-1.7,1-2.7s-0.4-2-1.1-2.5C217.2,75.9,216,75.5,214.8,75.6z M214.6,81.9c-0.4,0-0.8,0-1.3-0.1
		V77c0.4-0.1,1-0.1,1.5-0.1c1.7,0,3,0.8,3,2.4S216.5,81.9,214.6,81.9L214.6,81.9z M222.1,80.9L222.1,80.9v-1.7h-1.4V88h1.5v-4.6
		c0-0.3,0-0.6,0-0.7c0.1-1.1,1-2,2.1-2.1c0.1,0,0.4,0,0.6,0v-1.4c-0.1,0-0.3,0-0.4,0C223.4,79.1,222.4,79.8,222.1,80.9z M229.7,79
		c-2.4,0-4.4,1.8-4.4,4.2l0,0c0,0.1,0,0.3,0,0.4c-0.1,2.4,1.5,4.4,3.9,4.5h0.3c2.4,0,4.4-1.8,4.4-4.2c0-0.1,0-0.3,0-0.4
		c0.1-2.4-1.5-4.4-3.9-4.5H229.7z M229.7,87c-1.5,0-2.7-1.4-2.7-3.4c0-1.7,0.8-3.4,2.7-3.4s2.7,1.8,2.7,3.4
		C232.4,85.6,231.2,87,229.7,87z M239.7,80.2c0.7,0,1.3,0.1,1.8,0.4l0.4-1.3c-0.7-0.3-1.4-0.4-2.2-0.4c-2.5-0.1-4.6,1.7-4.8,4.2
		c0,0.1,0,0.4,0,0.6c-0.1,2.4,1.5,4.4,3.9,4.5l0,0c0.1,0,0.3,0,0.6,0c0.8,0,1.7-0.1,2.5-0.6l-0.3-1.3c-0.6,0.3-1.3,0.4-2,0.4
		c-1.7,0-3.1-1.3-3.1-3l0,0c0-0.1,0-0.3,0-0.3c-0.1-1.7,1-3.2,2.7-3.4C239.2,80.2,239.7,80.2,239.7,80.2z M246.7,79
		c-2.4,0-4.4,2.1-4.2,4.5c0,0.1,0,0.3,0,0.3c-0.1,2.2,1.4,4.2,3.7,4.5c0.1,0,0.4,0,0.6,0c1,0,2-0.1,3-0.6l-0.3-1.1
		c-0.8,0.3-1.7,0.4-2.5,0.4c-1.5,0.1-2.8-1.1-3-2.7c0-0.1,0-0.3,0-0.4h6.2v-0.7c0.3-2-1.1-3.8-3.1-4.1C247,79,246.8,79,246.7,79z
		 M244,82.8c0-1.4,1.1-2.5,2.5-2.7c1.3,0,2.2,1,2.2,2.2l0,0c0,0.1,0,0.1,0,0.3H244V82.8z M254.7,82.9c-1.1-0.4-1.7-0.8-1.7-1.5
		s0.6-1.3,1.4-1.3c0.7,0,1.3,0.1,1.8,0.6l0.4-1.1c-0.7-0.4-1.4-0.6-2.1-0.6c-1.5-0.1-2.8,0.8-3.1,2.4c0,0.1,0,0.1,0,0.3
		c0,1.1,0.7,2,2.4,2.5c1.1,0.4,1.7,0.8,1.7,1.7c0,0.8-0.6,1.3-1.7,1.3c-0.7,0-1.5-0.3-2.1-0.7l-0.4,1.3c0.7,0.4,1.7,0.6,2.5,0.6
		c2.1,0,3.4-1.1,3.4-2.7S256.2,83.5,254.7,82.9z M261.4,82.9c-1.1-0.4-1.7-0.8-1.7-1.5s0.6-1.3,1.5-1.3c0.7,0,1.3,0.1,1.8,0.6
		l0.4-1.1c-0.7-0.4-1.4-0.6-2.2-0.6c-1.5-0.1-2.8,0.8-3.1,2.4c0,0.1,0,0.1,0,0.3c0,1.1,0.7,2,2.4,2.5c1.3,0.4,1.7,0.8,1.7,1.7
		c0,0.8-0.6,1.3-1.7,1.3c-0.7,0-1.5-0.3-2.1-0.7l-0.4,1.3c0.7,0.4,1.5,0.6,2.5,0.6c2.1,0,3.4-1.1,3.4-2.7
		C263.8,84.2,263,83.5,261.4,82.9z M265.4,79.1h1.5V88h-1.5V79.1z M266.2,75.7c-0.6,0-1,0.4-1,1l0,0l0,0c0,0.6,0.4,1,1,1
		c0.6,0,1-0.4,1-1C267.2,76,266.8,75.6,266.2,75.7L266.2,75.7z M273.7,79c-1.3,0-2.2,0.6-3,1.7l0,0l-0.1-1.4h-1.4c0,0.7,0,1.4,0,2.4
		V88h1.5v-5.3c0-0.3,0-0.6,0.1-0.7c0.3-1,1.1-1.7,2.1-1.7c1.5,0,2.1,1.1,2.1,2.7V88h1.5v-5.2C276.8,79.7,274.8,79,273.7,79z
		 M285.1,80.5L285.1,80.5c-0.6-1-1.7-1.7-2.8-1.5c-2,0-3.9,1.7-3.9,4.6c-0.1,2.1,1.4,4.1,3.7,4.2h0.1c1.1,0.1,2.2-0.4,2.8-1.4l0,0v1
		c0,2.2-1.3,3.1-2.8,3.1c-0.8,0-1.8-0.3-2.5-0.7l-0.4,1.3c0.8,0.6,2,0.7,3,0.7c1.1,0,2.2-0.3,3.2-1.1c1-1.1,1.4-2.5,1.3-4.1v-5.1
		c0-0.8,0-1.7,0-2.4h-1.4L285.1,80.5z M284.9,84.3c0,0.3,0,0.6-0.1,0.8c-0.3,1-1.3,1.7-2.2,1.7c-1.7,0-2.7-1.4-2.7-3.2
		c0-2.1,1.1-3.4,2.7-3.4c1,0,2,0.7,2.2,1.7c0,0.3,0.1,0.4,0.1,0.7V84.3z M295.9,81.1c-1.7-0.7-2.5-1.3-2.5-2.4
		c0-0.8,0.7-1.8,2.2-1.8c0.8,0,1.7,0.1,2.4,0.6l0.4-1.3c-0.8-0.4-1.8-0.6-2.7-0.6c-2.4,0-3.9,1.4-3.9,3.4s1.3,2.8,3.2,3.5
		c1.7,0.7,2.2,1.3,2.2,2.4c0,1.1-1,2.1-2.5,2.1c-1,0-2-0.3-2.8-0.8l-0.4,1.4c1,0.6,2.1,0.8,3.1,0.8c3,0,4.4-1.7,4.4-3.5
		C299,83,297.8,81.8,295.9,81.1z M304.2,84.3c-0.3,0.7-0.4,1.3-0.6,1.8l0,0c-0.1-0.6-0.4-1.3-0.6-1.8l-2-5.2h-1.7l3.2,8.2
		c0,0.1,0.1,0.3,0.1,0.4c0,0.1,0,0.3-0.1,0.4c-0.3,0.7-0.8,1.3-1.4,1.8c-0.4,0.3-0.8,0.6-1.4,0.8l0.4,1.4c0.7-0.1,1.4-0.6,2-1
		c1.1-1,1.8-2.5,3.1-5.5l2.4-6.3h-1.8L304.2,84.3z M311.3,82.9c-1.1-0.4-1.7-0.8-1.7-1.5s0.6-1.3,1.5-1.3c0.7,0,1.3,0.1,1.8,0.6
		l0.4-1.1c-0.7-0.4-1.4-0.6-2.2-0.6c-1.5-0.1-2.8,0.8-3.1,2.4c0,0.1,0,0.1,0,0.3c0,1.1,0.7,2,2.4,2.5c1.3,0.4,1.7,0.8,1.7,1.7
		c0,0.8-0.6,1.3-1.7,1.3c-0.7,0-1.5-0.3-2.1-0.7l-0.4,1.3c0.7,0.4,1.7,0.6,2.5,0.6c2.1,0,3.4-1.1,3.4-2.7
		C313.7,84.2,312.9,83.5,311.3,82.9z M317.2,76.6l-1.5,0.4v2.1h-1.4v1.3h1.4v4.8c-0.1,0.8,0.1,1.7,0.6,2.2c0.4,0.4,1.1,0.7,1.7,0.7
		c0.4,0,1,0,1.4-0.3l-0.1-1.3c-0.3,0.1-0.6,0.1-1,0.1c-0.8,0-1.3-0.6-1.3-1.7v-4.8h2.2V79H317L317.2,76.6z M324.3,79
		c-2.4,0-4.4,2.1-4.2,4.5c0,0.1,0,0.3,0,0.3c-0.1,2.2,1.4,4.2,3.7,4.5c0.1,0,0.4,0,0.6,0c1,0,2-0.1,3-0.6l-0.3-1.1
		c-0.8,0.3-1.5,0.4-2.4,0.4c-1.5,0.1-3-1-3.1-2.5c0-0.1,0-0.3,0-0.6h6.2c0-0.3,0-0.6,0-0.7c0.3-2.1-1.1-3.9-3.2-4.2
		C324.4,79,324.4,79,324.3,79L324.3,79z M321.7,82.8c0-1.4,1.1-2.5,2.4-2.7c1.3,0,2.2,1,2.2,2.2c0,0.1,0,0.3,0,0.3h-4.6V82.8z
		 M339.2,79c-0.7,0-1.4,0.1-2,0.6c-0.4,0.3-0.7,0.7-1,1.1l0,0c-0.4-1.1-1.4-1.8-2.5-1.8s-2.2,0.6-2.8,1.7l0,0v-1.4h-1.4
		c0,0.7,0,1.5,0,2.4V88h1.5v-5.3c0-0.3,0-0.6,0.1-0.8c0.3-0.8,1.1-1.5,2-1.5c1.3,0,1.8,1,1.8,2.4V88h1.5v-5.3c0-0.3,0-0.6,0.1-0.8
		c0.3-0.8,1-1.4,2-1.4c1.3,0,2,1,2,2.7V88h1.5v-5.2C342.1,79.7,340.4,79,339.2,79z"/>
	<path id="nsap-pps" d="M349.7,75.3c-1.5,2.2-2.2,4.8-2.2,7.4s0.7,5.2,2.2,7.3h1.7c-2.8-4.5-2.8-10.3,0-14.8H349.7z M360.4,80
		c0,1.7,0,3.4,0.1,5.1l0,0c-0.6-1.4-1.3-2.8-2.1-4.1l-3.2-5.3h-2.5V88h2.1v-4.4c0-2,0-3.7-0.1-5.2l0,0c0.7,1.4,1.4,2.8,2.2,4.2
		l3.2,5.3h2.2V75.7h-2.1V80H360.4z M368.8,80.8c-1.7-0.7-2.4-1.1-2.4-2c0-0.7,0.6-1.5,2.1-1.5c0.8,0,1.7,0.1,2.4,0.6l0.6-1.8
		c-1-0.4-2-0.7-3-0.6c-2.7,0-4.4,1.5-4.4,3.5c0,1.8,1.3,2.8,3.4,3.7c1.5,0.6,2.2,1.1,2.2,2.1s-0.8,1.7-2.2,1.7c-1,0-2.1-0.3-3-0.8
		l-0.6,1.8c1,0.6,2.1,0.7,3.4,0.7c3.2,0,4.6-1.7,4.6-3.7S370.9,81.6,368.8,80.8z M376.7,75.7L372.8,88h2.2l1.1-3.5h3.9l1.1,3.5h2.4
		l-3.9-12.4L376.7,75.7z M376.4,82.8l1-3.1c0.1-0.7,0.4-1.5,0.6-2.2l0,0c0.1,0.7,0.4,1.5,0.6,2.2l1,3.1H376.4z M388.2,75.6
		c-1.1,0-2.2,0.1-3.4,0.3V88h2.2v-4.6c0.4,0,0.7,0,1.1,0c1.4,0.1,2.8-0.4,3.9-1.3c0.7-0.7,1.1-1.8,1.1-2.8s-0.4-2.1-1.3-2.7
		C390.8,75.7,389.5,75.5,388.2,75.6z M388.1,81.6c-0.4,0-0.7,0-1.1-0.1v-4.2c0.4-0.1,0.8-0.1,1.3-0.1c1.5,0,2.5,0.7,2.5,2.1
		c0,1.3-1.1,2.4-2.4,2.4C388.2,81.8,388.2,81.6,388.1,81.6z M393.6,82.3h4.6v1.5h-4.6V82.3z M403,75.6c-1.1,0-2.2,0.1-3.4,0.3V88
		h2.2v-4.6c0.4,0,0.7,0,1.1,0c1.4,0.1,2.8-0.4,3.9-1.3c0.7-0.7,1.1-1.8,1.1-2.8s-0.4-2.1-1.3-2.7C405.5,75.7,404.2,75.5,403,75.6z
		 M402.8,81.6c-0.4,0-0.7,0-1.1-0.1v-4.2c0.4-0.1,0.8-0.1,1.3-0.1c1.5,0,2.5,0.7,2.5,2.1C405.5,80.8,404.5,81.6,402.8,81.6z
		 M412.7,75.6c-1.1,0-2.2,0.1-3.4,0.3V88h2.2v-4.6c0.4,0,0.7,0,1.1,0c1.4,0.1,2.8-0.4,3.9-1.3c0.7-0.7,1.1-1.8,1.1-2.8
		s-0.4-2.1-1.3-2.7C415.2,75.7,413.9,75.5,412.7,75.6z M412.7,81.6c-0.4,0-0.7,0-1.1-0.1v-4.2c0.4-0.1,0.8-0.1,1.3-0.1
		c1.5,0,2.5,0.7,2.5,2.1c0,1.3-1.1,2.4-2.5,2.4C412.8,81.8,412.8,81.6,412.7,81.6z M423.4,80.8c-1.7-0.7-2.4-1.1-2.4-2
		c0-0.7,0.7-1.5,2.1-1.5c0.8,0,1.7,0.1,2.4,0.6L426,76c-1-0.4-2-0.7-3-0.6c-2.7,0-4.4,1.5-4.4,3.5c0,1.8,1.3,2.8,3.4,3.7
		c1.5,0.6,2.2,1.1,2.2,2.1s-0.8,1.7-2.2,1.7c-1,0-2.1-0.3-3-0.8l-0.6,1.8c1,0.6,2.1,0.7,3.4,0.7c3.2,0,4.6-1.7,4.6-3.7
		S425.5,81.6,423.4,80.8z M427.3,75.3c2.8,4.5,2.8,10.3,0,14.9h1.7c1.5-2.1,2.2-4.8,2.2-7.4c0.1-2.7-0.7-5.2-2.2-7.4
		C429,75.3,427.3,75.3,427.3,75.3z"/>
</g>
<g id="NSAP">
	<path id="national" d="M161,58.1c0,2.1,0,4.1,0.2,6.2l0,0c-0.8-1.8-1.6-3.5-2.5-5.1l-3.9-6.5h-3.1V68h2.5v-5.4c0-2.5,0-4.5-0.1-6.5
		l0,0c0.8,1.8,1.8,3.5,2.8,5.3l4,6.6h2.9V52.9h-2.5L161,58.1z M165.9,65c0,1.8,1.4,3.2,3.2,3.2l0,0h0.2c1.2,0,2.5-0.5,3.2-1.5h0.1
		l0.1,1.2h2.5c-0.1-0.9-0.1-1.8-0.1-2.6v-4c0-2.4-1-4.6-4.5-4.6c-1.4,0-2.7,0.3-4,1l0.5,1.8c0.9-0.5,1.9-0.9,3-0.9
		c1.9,0,2.2,1.2,2.2,1.9v0.1C168.4,60.9,165.9,62.2,165.9,65z M172.5,62.8v1.5c0,0.2,0,0.4-0.1,0.6c-0.4,0.9-1.2,1.5-2.1,1.5
		c-0.8,0.1-1.5-0.5-1.6-1.2c0-0.1,0-0.1,0-0.2C168.6,63.1,170.5,62.6,172.5,62.8z M181.1,54l-2.8,0.6v2.5h-1.6v2.1h1.6v5.1
		c-0.1,1.1,0.2,2.1,0.9,3c0.6,0.6,1.5,1,2.4,0.9c0.8,0,1.4-0.1,2-0.2v-2.1c-0.4,0.1-0.8,0.1-1.1,0.1c-1.1,0-1.4-0.6-1.4-2v-4.9h2.5
		V57H181L181.1,54z M185.9,57.1h2.8v11h-2.8V57.1z M187.2,55.5c0.9,0,1.5-0.7,1.5-1.5c0-0.9-0.8-1.5-1.5-1.5c-0.9,0-1.5,0.8-1.5,1.5
		C185.8,54.9,186.4,55.5,187.2,55.5C187.1,55.5,187.1,55.5,187.2,55.5L187.2,55.5z M196.6,56.9c-3-0.1-5.5,2.1-5.8,5.1
		c0,0.2,0,0.5,0,0.6c-0.2,2.9,2,5.4,4.9,5.6c0,0,0,0,0.1,0c0.1,0,0.4,0,0.5,0c3,0.1,5.5-2.2,5.6-5.3c0-0.2,0-0.4,0-0.6
		c0.2-2.9-2-5.4-4.9-5.6l0,0C197,56.9,196.9,56.9,196.6,56.9z M196.5,66.2c-1.8,0-2.8-1.6-2.8-3.8c0-1.9,0.8-3.8,2.8-3.8
		c2,0,2.6,2,2.6,3.6C199.2,64.8,198.1,66.2,196.5,66.2z M207.1,68v-6.4c0-0.2,0-0.6,0.1-0.9c0.2-1,1.1-1.6,2.1-1.6
		c1.5,0,2.1,1.2,2.1,2.8v6.3h2.8v-6.5c0-3.5-2-4.8-3.9-4.8c-1.4,0-2.8,0.6-3.5,1.9h-0.1l-0.1-1.6h-2.4c0,1,0.1,2,0.1,3.2v7.8
		L207.1,68z M216.4,65c0,1.8,1.4,3.2,3.3,3.2l0,0h0.2c1.2,0,2.5-0.5,3.2-1.5h0.1l0.1,1.2h2.5c-0.1-0.9-0.1-1.8-0.1-2.6v-4
		c0-2.4-1-4.6-4.5-4.6c-1.4,0-2.7,0.3-4,1l0.5,1.8c0.9-0.5,1.9-0.8,3-0.9c2,0,2.3,1.2,2.3,1.9v0.1C218.9,60.9,216.4,62.2,216.4,65z
		 M223,62.6v1.5c0,0.2,0,0.4-0.1,0.6c-0.4,0.9-1.2,1.5-2.1,1.5c-0.8,0.1-1.5-0.5-1.6-1.2c0-0.1,0-0.1,0-0.2
		C219.2,63.1,221,62.6,223,62.6L223,62.6z M228.6,52.1h2.7v16h-2.7V52.1z"/>
	<g id="social">
		<path d="M242.8,66c-1.2,0-2.5-0.4-3.6-1l-0.6,2.2c1.2,0.6,2.6,1,4.1,1c3.9,0,5.8-2.1,5.8-4.5c0-2.2-1.2-3.5-3.9-4.5
			c-2-0.7-2.9-1.4-2.9-2.5c0-0.9,0.8-1.9,2.5-1.9c1,0,2.1,0.3,3,0.8l0.6-2.2c-1.1-0.5-2.4-0.7-3.6-0.7c-3.2,0-5.4,1.9-5.4,4.4
			c0,2.2,1.6,3.5,4.1,4.4c1.9,0.7,2.8,1.4,2.8,2.5S244.5,66,242.8,66z M261.4,62.5c0.2-2.9-2-5.4-4.9-5.6l0,0c-0.1,0-0.4,0-0.5,0
			c-3-0.1-5.5,2.1-5.8,5.1c0,0.2,0,0.5,0,0.6c-0.2,2.9,2,5.4,4.9,5.6l0,0c0.1,0,0.4,0,0.5,0c3,0.1,5.5-2.2,5.6-5.3
			C261.4,62.9,261.4,62.8,261.4,62.5z M255.8,66.2c-1.7,0-2.7-1.6-2.7-3.8c0-1.9,0.8-3.8,2.7-3.8c2,0,2.6,2,2.6,3.6
			C258.5,64.8,257.4,66.2,255.8,66.2L255.8,66.2z M269.1,59c0.8,0,1.4,0.1,2.1,0.4l0.5-2.1c-0.9-0.4-1.8-0.5-2.6-0.5
			c-3.1-0.2-5.9,2.1-6.1,5.3c-0.2,3,1.9,5.8,4.9,6.2c0.2,0,0.5,0,0.8,0c1.1,0,2.1-0.1,3.1-0.6l-0.4-2.1c-0.8,0.2-1.4,0.4-2.1,0.4
			c-2-0.1-3.5-1.8-3.4-3.8C265.9,60.5,267.2,59.1,269.1,59z M275,55.5c0.9,0,1.5-0.7,1.5-1.5c0-0.9-0.8-1.5-1.5-1.5
			c-0.9,0-1.5,0.8-1.5,1.5C273.5,54.9,274.1,55.5,275,55.5C274.9,55.5,274.9,55.5,275,55.5L275,55.5z M273.6,57.1h2.8v11h-2.8V57.1z
			 M278.6,65c0,1.8,1.4,3.2,3.2,3.2l0,0h0.2c1.2,0,2.5-0.5,3.2-1.5h0.1l0.1,1.2h2.5c-0.1-0.9-0.1-1.8-0.1-2.6v-4
			c0-2.4-1-4.6-4.5-4.6c-1.4,0-2.8,0.3-4,1l0.5,1.8c0.9-0.5,1.9-0.8,3-0.9c2,0,2.2,1.2,2.2,1.9v0.1C281.1,60.9,278.6,62.2,278.6,65z
			 M285.2,62.6v1.5c0,0.2,0,0.4-0.1,0.6c-0.4,0.9-1.2,1.5-2.1,1.5c-0.8,0.1-1.5-0.5-1.6-1.2c0-0.1,0-0.1,0-0.2
			C281.4,63.1,283.2,62.6,285.2,62.6L285.2,62.6z M290.9,52.1h2.8v16h-2.8V52.1z"/>
	</g>
	<path id="assistance" d="M313.6,68l-4.9-15.1h-3.5L300.4,68h2.9l1.2-4.2h4.9l1.4,4.2H313.6z M304.9,61.6l1.1-3.8
		c0.2-0.9,0.5-2,0.8-2.9l0,0c0.2,0.9,0.5,1.9,0.8,2.9l1.1,3.8H304.9z M319.8,61.5c-1.4-0.5-1.9-0.9-1.9-1.5s0.5-1.1,1.5-1.1
		c0.8,0,1.6,0.2,2.4,0.6l0.5-2c-0.9-0.5-1.9-0.6-2.9-0.6c-2.5,0-4.1,1.5-4.1,3.5c0,1.2,0.9,2.5,3,3.2c1.4,0.5,1.8,0.9,1.8,1.6
		c0,0.7-0.5,1.2-1.8,1.2c-1,0-2-0.3-2.8-0.8l-0.5,2c1,0.5,2.1,0.7,3.4,0.7c2.9,0,4.5-1.5,4.5-3.4C322.6,63.2,321.8,62.2,319.8,61.5z
		 M327.6,66.2c-1,0-2-0.2-2.8-0.8l-0.5,2c1,0.5,2.1,0.8,3.4,0.8c2.9,0,4.5-1.5,4.5-3.4c0-1.6-1-2.6-2.9-3.4
		c-1.4-0.5-1.9-0.9-1.9-1.5s0.5-1.1,1.5-1.1c0.9,0,1.6,0.2,2.4,0.6l0.5-2c-0.9-0.5-1.9-0.6-2.9-0.6c-2.5,0-4.1,1.5-4.1,3.5
		c0,1.2,0.9,2.5,3,3.2c1.4,0.5,1.8,0.9,1.8,1.6S328.8,66.2,327.6,66.2z M334.2,57.1h2.8v11h-2.8V57.1z M334.1,54
		c0,0.9,0.6,1.5,1.5,1.6c0.9,0,1.5-0.6,1.6-1.5c0-0.9-0.6-1.5-1.5-1.6l0,0c-0.8,0-1.5,0.6-1.5,1.4l0,0L334.1,54z M347.1,64.9
		c0-1.6-1-2.6-2.9-3.4c-1.4-0.5-1.9-0.9-1.9-1.5s0.5-1.1,1.5-1.1c0.8,0,1.6,0.2,2.4,0.6l0.5-2c-0.9-0.5-1.9-0.6-2.9-0.6
		c-2.5,0-4.1,1.5-4.1,3.5c0,1.2,0.9,2.5,3,3.2c1.4,0.5,1.8,0.9,1.8,1.6c0,0.7-0.5,1.2-1.8,1.2c-1,0-2-0.3-2.8-0.8l-0.5,2
		c1,0.5,2.1,0.7,3.4,0.7C345.6,68.2,347.1,66.9,347.1,64.9z M355.2,59.1V57h-2.6v-3.1l-2.8,0.6V57h-1.6v2.1h1.6v5.1
		c-0.1,1.1,0.2,2.1,0.9,3c0.6,0.6,1.5,1,2.4,0.9c0.6,0,1.4-0.1,2-0.2v-2.1c-0.4,0.1-0.8,0.1-1.1,0.1c-1,0-1.4-0.6-1.4-2V59h2.6V59.1
		z M360.9,58.8c1.9,0,2.2,1.2,2.2,1.9v0.1c-4,0-6.5,1.4-6.5,4.1c0,1.8,1.4,3.2,3.2,3.2l0,0h0.2c1.2,0,2.5-0.5,3.2-1.5h0.1l0.1,1.2
		h2.5c-0.1-0.9-0.1-1.8-0.1-2.6v-4c0-2.4-1-4.6-4.5-4.6c-1.4,0-2.8,0.3-4,1l0.5,1.8C358.8,59,359.8,58.8,360.9,58.8z M363.1,64.1
		c0,0.2,0,0.4-0.1,0.6c-0.4,0.9-1.2,1.5-2.1,1.5c-0.8,0.1-1.5-0.5-1.6-1.2c0-0.1,0-0.1,0-0.2c0-1.6,1.9-2.1,3.9-2V64.1z M373.9,59.1
		c1.5,0,2.1,1.2,2.1,2.8v6.2h2.9v-6.5c0-3.5-2-4.8-3.9-4.8c-1.4-0.1-2.8,0.6-3.5,1.9l0,0l-0.1-1.6h-2.6c0,1,0.1,2,0.1,3.2v7.8h2.8
		v-6.5c0-0.2,0-0.6,0.1-0.9C372,59.8,372.9,59.1,373.9,59.1z M386.6,68.2c1,0,2.1-0.1,3.1-0.6l-0.4-2c-0.8,0.2-1.4,0.4-2.2,0.4
		c-2-0.1-3.5-1.8-3.4-3.8c0.1-1.8,1.5-3.2,3.4-3.4c0.8,0,1.5,0.1,2.1,0.4l0.5-2.1c-0.9-0.4-1.8-0.5-2.6-0.5
		c-3.1-0.2-5.9,2.1-6.1,5.1c0,0.2,0,0.5,0,0.6c-0.1,2.9,2,5.4,4.9,5.6C386.1,68.2,386.4,68.2,386.6,68.2z M396.2,56.9
		c-3.5,0-5.4,2.9-5.4,5.9c-0.2,2.9,2,5.4,4.8,5.5c0.2,0,0.6,0,0.9,0c1.2,0,2.6-0.2,3.9-0.6l-0.4-1.9c-1,0.4-2,0.5-3,0.5
		c-1.8,0-3.3-0.9-3.4-2.9h7.4c0.1-0.4,0.1-0.8,0.1-1.1C400.9,59.8,399.8,56.9,396.2,56.9z M393.5,61.4c0-1.4,1.1-2.6,2.5-2.6
		c1.2,0,2.4,1.1,2.2,2.4c0,0.1,0,0.1,0,0.3C398.2,61.4,393.5,61.4,393.5,61.4z"/>
	<path id="programme" d="M410.6,62.4c0.5,0.1,0.9,0.1,1.4,0.1c1.8,0.1,3.5-0.5,4.8-1.6c0.9-0.9,1.4-2.1,1.2-3.5
		c0-1.2-0.5-2.5-1.5-3.4c-1.2-0.9-2.9-1.4-4.5-1.2c-1.4,0-2.9,0.1-4.2,0.2v15h2.8L410.6,62.4z M410.6,55c0.5-0.1,1.1-0.1,1.6-0.1
		c1.9,0,3.1,0.9,3.1,2.6s-1.2,2.8-3.4,2.8c-0.5,0-0.9,0-1.4-0.1L410.6,55L410.6,55z M420.1,60.6V68h2.8v-5.6c0-0.2,0-0.6,0.1-0.9
		c0.3-1.2,1.2-2.1,2.5-2.1c0.3,0,0.5,0,0.8,0.1v-2.6c-0.2,0-0.4,0-0.6,0c-1.4,0-2.6,1-3,2.4h-0.1l-0.1-2.1H420
		C420.1,58.1,420.1,59.1,420.1,60.6z M432.9,56.9c-3-0.1-5.5,2.1-5.6,5.1c0,0.2,0,0.5,0,0.6c-0.3,2.9,2,5.4,4.9,5.6c0,0,0,0,0.1,0
		c0.1,0,0.4,0,0.6,0c3,0.1,5.5-2.2,5.6-5.3c0-0.2,0-0.4,0-0.6c0.2-2.9-2-5.4-4.9-5.6l0,0C433.2,56.9,433.1,56.9,432.9,56.9z
		 M432.8,66.2c-1.7,0-2.8-1.6-2.8-3.8c0-1.9,0.8-3.8,2.8-3.8c2,0,2.6,2,2.6,3.6C435.5,64.8,434.4,66.2,432.8,66.2z M444.9,56.9
		c-2.6,0-5,2.1-5,5.8c0,3.1,1.9,5.4,4.6,5.4c1.2,0,2.5-0.6,3.2-1.6l0,0v1c0.3,1.6-0.9,3.1-2.5,3.2l0,0c-0.2,0-0.5,0-0.6,0
		c-1.1,0-2.2-0.2-3.2-0.9l-0.6,2.1c1.1,0.6,2.5,0.9,3.9,0.9c1.5,0.1,3-0.4,4.2-1.4c1.1-1,1.6-2.8,1.6-5v-6.2c0-1,0-2.1,0.1-3.1h-2.4
		l-0.1,1.5l0,0C447.4,57.4,446.1,56.8,444.9,56.9z M447.8,61.5v1.8c0,0.4,0,0.6-0.1,1c-0.2,1-1.2,1.6-2.2,1.6
		c-1.8,0-2.6-1.5-2.6-3.4c0-2.2,1.1-3.6,2.8-3.6c1.1,0,2,0.7,2.2,1.8C447.8,61,447.8,61.2,447.8,61.5z M458.8,59.4
		c0.2,0,0.5,0,0.8,0.1v-2.6c-0.2,0-0.4,0-0.6,0c-1.4,0-2.6,1-3,2.4h-0.1l-0.1-2.1h-2.4c0.1,1,0.1,2,0.1,3.5V68h2.9v-5.6
		c0-0.2,0-0.6,0.1-0.9C456.5,60.4,457.5,59.5,458.8,59.4z M461.8,59.6c0.9-0.5,1.9-0.7,3-0.9c1.9,0,2.2,1.2,2.2,1.9v0.1
		c-4,0-6.5,1.4-6.5,4.1c0,1.8,1.4,3.2,3.3,3.2c0,0,0,0,0.1,0h0.3c1.2,0,2.5-0.5,3.2-1.5l0,0l0.1,1.2h2.5c-0.1-0.9-0.1-1.8-0.1-2.6
		v-4c0-2.4-1-4.6-4.5-4.6c-1.4,0-2.8,0.3-4,1L461.8,59.6z M467,64.2c0,0.2,0,0.4-0.1,0.6c-0.4,0.9-1.2,1.5-2.1,1.5
		c-0.8,0.1-1.5-0.5-1.6-1.2c0-0.1,0-0.1,0-0.2c0-1.6,1.9-2.1,3.9-2V64.2z M482.1,68v-6.5c0-0.4,0-0.6,0.1-0.9c0.2-0.9,1-1.4,1.9-1.5
		c1.4,0,2,1.1,2,2.9v6h2.6v-6.5c0-3.5-1.9-4.8-3.6-4.8c-0.8,0-1.5,0.3-2.2,0.6c-0.5,0.4-1,0.8-1.4,1.4l0,0c-0.5-1.2-1.8-2-3-2
		c-1.4,0-2.8,0.8-3.4,1.9H475V57h-2.5c0.1,1,0.1,2,0.1,3.2V68h2.8v-6.5c0-0.2,0-0.6,0.1-0.9c0.3-0.9,1.1-1.5,2-1.6
		c1.2,0,1.9,1.1,1.9,2.6V68C479.4,68,482.1,68,482.1,68z M497.6,56.9c-1.4,0-2.6,0.6-3.4,1.9l0,0l-0.1-1.6h-2.4c0,1,0.1,2,0.1,3.2
		v7.8h2.8v-6.5c0-0.2,0-0.6,0.1-0.9c0.2-0.9,1-1.5,2-1.6c1.2,0,1.9,1.1,1.9,2.6v6.4h2.8v-6.5c0-0.2,0-0.6,0.1-0.9
		c0.2-0.9,1-1.4,1.9-1.5c1.4,0,2,1.1,2,2.9v6h2.8v-6.5c0-3.5-1.9-4.7-3.6-4.7c-0.8,0-1.5,0.2-2.2,0.6c-0.5,0.4-1,0.9-1.4,1.4l0,0
		C500.1,57.6,498.9,56.8,497.6,56.9z M519.1,65.6c-1,0.4-2,0.5-3,0.5c-1.8,0-3.2-0.9-3.4-2.9h7.4c0.1-0.4,0.1-0.8,0.1-1.1
		c0-2.4-1.1-5.4-4.8-5.4s-5.4,2.9-5.4,5.9c-0.2,2.9,2,5.4,4.8,5.5c0.2,0,0.6,0,0.9,0c1.2,0,2.6-0.3,3.9-0.6L519.1,65.6z M515.2,58.8
		c1.2,0,2.4,1.1,2.2,2.4l0,0c0,0.1,0,0.1,0,0.3h-4.9C512.8,60,513.9,58.9,515.2,58.8z"/>
</g>
<g id="GoI">
	<path id="bharat_sarkar" d="M187.4,31.1v1h-2.1v10.6H184v-7.6h-4.2c-0.3,0-0.5,0-0.6,0.2c-0.3,0.2-0.6,0.3-0.8,0.8l-0.2,0.6
		c0,1.1,0.3,2.1,1,3.1c0.5,0.8,1,1.4,1.6,2.1c0.2,0.2,0.3,0.2,0.5,0.2l-0.8,0.6l0,0l-0.2-0.2l-0.6-0.6l-0.8-1.1l-0.3-0.5l-0.3-0.6
		c-0.3-0.5-0.5-1.1-0.6-1.6c-0.2-0.5-0.2-1.1-0.2-1.6c0-0.6,0.2-1.3,0.5-1.8c0.2-0.2,0.3-0.3,0.6-0.5c0.3-0.2,0.6-0.2,1-0.2h5V32
		h-10.4v2.7c0,1-0.6,1.8-1.4,2.1c-0.3,0.2-0.6,0.2-1,0.2h-0.5c-0.2,0-0.3,0-0.3-0.2l1.6,2.2l0.6,0.8l1.1,1.3l0.5,0.5l-0.8,0.8
		c-0.5-0.3-1-0.6-1.3-1.3c-0.8-1-1.4-1.9-2.2-2.9l-0.6-1l-0.6-1.1l-0.5-0.8l-0.5-0.8l1-0.6l1,1.6c0.3,0.3,0.8,0.6,1.3,0.6
		c0.3,0,0.8-0.2,1.1-0.3c0.3-0.3,0.5-0.6,0.5-1.1V32h-8v10.6h-1.1V32.1h-4.5v10.6H158V37h-3.5v2.2l-0.2,0.2H154
		c-0.2,0-0.5-0.2-0.6-0.3c-0.3-0.3-0.6-0.6-1-1l-0.8-1c-0.2-0.2-0.2-0.3-0.3-0.6v-0.2l0.3-0.2l0.2-0.2h1.4v-3.2
		c0-0.3-0.2-0.5-0.3-0.6s-0.5-0.3-0.6-0.3c-0.2,0-0.3,0-0.5,0.2l-0.3,0.2l-0.3,0.3l-0.2,0.5v0.3l0.2,0.3v0.2l0.2,0.2h-1.1v-0.2V33
		c0-0.6,0.2-1.3,0.6-1.6c0.5-0.3,1-0.5,1.6-0.5c0.8-0.2,1.6,0.3,1.9,1.1c0.2,0.3,0.2,0.5,0.2,0.8v3.1h3.5v-4h-2.2v-0.8
		C155.7,31.1,187.4,31.1,187.4,31.1z M243.8,36.9c-0.2,0-0.3,0-0.3-0.2l1.6,2.2l0.6,0.8l1.1,1.3l0.5,0.5l-1,0.8
		c-0.5-0.3-1-0.6-1.3-1.3c-0.8-1-1.4-1.9-2.2-2.9l-0.6-1l-0.6-1.1l-0.5-0.8l-0.5-0.8l1-0.6l1,1.6c0.3,0.3,0.8,0.6,1.3,0.6
		c0.3,0,0.8-0.2,1.1-0.3c0.3-0.3,0.5-0.6,0.5-1.1V32h-8v10.3h-1.1V32h-8.8v3.1l0.3-0.3l0.3-0.2c0.5-0.3,1-0.6,1.6-0.6
		c0.8,0,1.6,0.3,2.2,0.8c0.6,0.5,1,1.3,1,2.1c0,1-0.5,1.9-1.1,2.7l-0.5,0.6l-0.6,0.8l-1-0.8c0.2,0,0.3-0.2,0.3-0.2
		c0.6-0.6,1.1-1.3,1.4-2.1c0.2-0.3,0.3-0.6,0.3-1.1c0-0.3,0-0.8-0.2-1.1c-0.3-0.5-1-0.8-1.4-0.8c-0.6,0-1.3,0.5-1.8,1
		c-0.2,0.3-0.3,0.6-0.5,0.8c-0.2,0.3-0.2,0.5-0.2,0.8v4.8h-1.1l0-3.4c-0.5,0.5-1.3,0.8-2.1,0.8s-1.6-0.3-2.2-0.8
		c-1.3-1.1-1.3-3.1-0.2-4.3l0,0l0.2-0.2c0.5-0.5,1-0.6,1.6-0.8h0.6h0.6c0.2,0,0.5,0,0.6,0.2v1h-0.2l-0.2-0.2l-0.3-0.2h-0.3
		c-0.6,0-1.1,0.2-1.4,0.6c-0.3,0.5-0.5,1-0.5,1.6c0,0.8,0.3,1.6,1.1,1.9c0.3,0.2,0.5,0.2,0.8,0.2c0.6,0,1.3-0.3,1.6-0.8
		c0.3-0.2,0.2-0.5,0.2-1v-5h-9.2v2.2c0,1-0.6,1.8-1.6,2.1c-0.3,0.2-0.6,0.2-1,0.2h-0.5c-0.2,0-0.3,0-0.3-0.2l1.6,2.2l0.6,0.8
		l1.1,1.3l0.5,0.5l-0.8,0.8c-0.5-0.3-1-0.6-1.3-1.3c-0.8-1-1.4-1.9-2.2-2.9l-0.6-1l-0.6-1.1l-0.5-0.8l-0.5-0.8l1-0.6l1,1.6
		c0.3,0.5,0.8,0.6,1.3,0.6c0.3,0,0.8-0.2,1.1-0.3c0.3-0.3,0.5-0.6,0.5-1.1V32h-7.9v10.3h-1.1v-5.8h-3.2l-0.8-1h4V32H203v3.5
		l-0.2,0.5c-0.2,0.3-0.5,0.6-0.8,0.8l-0.5,0.2c-0.2,0-0.2,0-0.3,0h-0.5c-0.2,0-0.2,0-0.3,0l1.4,2.1l0.6,0.8l1.1,1.3l0.5,0.5l-1,0.8
		c-0.3,0-0.6-0.5-1.1-1.1l-2.7-4l-0.6-1l-0.5-0.6l-0.3-0.6l1-0.6l0.6,1.3c0.3,0.5,0.8,0.8,1.3,0.8h0.5c0.2,0,0.2-0.2,0.3-0.2
		l0.2-0.3v-4l-5.1,0v-1l52,0v1h-1.8v2.9c0,1-0.6,1.8-1.6,2.1c-0.3,0.2-0.6,0.2-1,0.2L243.8,36.9z"/>
	<path id="goi" d="M268.2,42.5c1.1,0,2.2-0.2,3.4-0.6v-5.1H268v1.1h2.2V41c-0.6,0.2-1.3,0.3-1.9,0.3c-2.2,0.2-4-1.6-4.2-3.7l0,0
		c0-0.2,0-0.5,0-0.6c-0.2-2.2,1.4-4.2,3.7-4.3c0.2,0,0.5,0,0.6,0c0.8,0,1.6,0.2,2.4,0.5l0.3-1.1c-0.8-0.3-1.8-0.5-2.7-0.5
		c-3.1-0.2-5.6,1.9-5.8,5l0,0c0,0.2,0,0.3,0,0.6c0,1.4,0.5,2.9,1.4,4C265.1,42,266.6,42.5,268.2,42.5z M278.2,42.5
		c2.7,0,5-1.9,5-5.6c0-3.2-1.9-5.5-4.8-5.5s-5,2.2-5,5.6S275.4,42.5,278.2,42.5z M278.3,32.5c2.2,0,3.4,2.2,3.4,4.3
		c0,2.4-1.3,4.5-3.5,4.5s-3.4-2.1-3.4-4.3C274.8,34.8,275.9,32.5,278.3,32.5z M289.4,42.3l3.9-10.8h-1.4l-1.8,5.3
		c-0.5,1.4-1,2.7-1.3,4l0,0c-0.3-1.3-0.6-2.6-1.1-4l-1.6-5.3h-1.4l3.5,10.8H289.4z M301,41.2h-4.8v-3.9h4.2v-1.1h-4.2v-3.5h4.5v-1.1
		h-5.8v10.8h6.1V41.2z M304.5,37.7h1.3c1.3,0,1.8,0.6,2.2,2.1c0.2,0.8,0.5,1.8,0.6,2.6h1.4c-0.3-1-0.6-1.9-0.8-3.1
		c-0.2-1-0.6-1.8-1.6-2.2l0,0c1.3-0.3,2.1-1.4,2.1-2.7c0-0.8-0.2-1.6-0.6-2.1c-1-0.6-2.1-1-3.2-0.8c-1,0-1.8,0-2.7,0.2v10.8h1.4
		L304.5,37.7z M304.5,32.7c0.5-0.2,1-0.2,1.4-0.2c1.4,0,2.6,0.6,2.6,2.1c0,1.4-1,2.1-2.4,2.1h-1.4v-4H304.5z M313.5,37.7
		c0-1.8,0-3.1-0.2-4.5l0,0c0.6,1.3,1.3,2.4,2.1,3.5l3.4,5.5h1.4V31.4H319v4.5c0,1.4,0,2.9,0.2,4.5l0,0c-0.6-1.3-1.3-2.4-1.9-3.5
		l-3.5-5.5h-1.4v10.9h1.3V37.7z M324.4,37.7c0.2-1.6,0.2-3.4,0.2-4.8l0,0c0.3,1.3,0.8,2.7,1.3,4.2l1.8,5.1h1.1l1.9-5.3
		c0.5-1.4,1-2.9,1.4-4.2l0,0c0,1.3,0,3.2,0.2,4.7l0.3,4.8h1.4l-0.8-10.9h-1.6l-1.9,5.3c-0.5,1.4-0.8,2.6-1.1,3.7l0,0
		c-0.3-1.1-0.6-2.2-1.1-3.7l-1.9-5.3h-1.8L323,42h1.3L324.4,37.7z M342.6,41.2h-4.7v-3.9h4.2v-1.1h-4.2v-3.5h4.5v-1.1h-5.8v10.8h6.1
		v-1.1H342.6z M346.1,37.7c0-1.8,0-3.1-0.2-4.5l0,0c0.6,1.3,1.3,2.4,2.1,3.5l3.4,5.5h1.4V31.4h-1.3v4.5c0,1.4,0,2.9,0.2,4.5l0,0
		c-0.6-1.3-1.3-2.4-1.9-3.5l-3.5-5.5h-1.6v10.9h1.3L346.1,37.7z M357.8,42.3h1.4v-9.6h3.4v-1.1h-8v1.1h3.2V42.3z M372.1,42.5
		c2.7,0,5-1.9,5-5.6c0-3.2-1.9-5.5-4.8-5.5s-5,2.2-5,5.6S369.2,42.5,372.1,42.5z M372.3,32.5c2.4,0,3.4,2.2,3.4,4.3
		c0,2.4-1.3,4.5-3.5,4.5s-3.4-2.1-3.4-4.3C368.8,34.8,369.9,32.5,372.3,32.5z M380.8,37.5h4v-1.1h-4v-3.7h4.5v-1.1h-5.8v10.8h1.4
		v-4.8H380.8z M391.4,31.6h1.4v10.8h-1.4V31.6z M397,37.7c0-1.8,0-3.1-0.2-4.5l0,0c0.6,1.3,1.3,2.4,2.1,3.5l3.4,5.5h1.4V31.4h-1.3
		v4.5c0,1.4,0,2.9,0.2,4.5l0,0c-0.6-1.3-1.3-2.4-1.9-3.5l-3.5-5.5h-1.4v10.9h1.3V37.7z M413.9,40.9c1.1-1.1,1.6-2.6,1.6-4.2
		c0.2-1.4-0.5-2.9-1.6-3.9c-1.3-1-2.7-1.4-4.3-1.3c-1,0-1.9,0-3.1,0.2v10.6c0.8,0.2,1.8,0.2,2.6,0.2C411,42.5,412.6,42,413.9,40.9z
		 M408,32.7c0.5-0.2,1.1-0.2,1.6-0.2c2.1-0.3,4,1.1,4.3,3.2c0,0.3,0,0.6,0,1c0.3,2.2-1.4,4.3-3.7,4.7c-0.3,0-0.6,0-1,0
		c-0.5,0-1,0-1.4,0L408,32.7z M417.8,31.6h1.4v10.8h-1.4V31.6z M423.7,38.9h3.9l1.1,3.4h1.4l-3.7-10.8h-1.6l-3.7,10.8h1.4
		L423.7,38.9z M425.1,34.6c0.2-0.6,0.3-1.3,0.5-1.9l0,0c0.2,0.6,0.3,1.3,0.6,1.9l1.1,3.1h-3.2L425.1,34.6z"/>
	<line class="st0" x1="255.8" y1="30.3" x2="255.8" y2="44.7"/>
</g>
<path id="MoRD" d="M152.9,18.6c0.2-2,0.2-4.4,0.3-6l0,0c0.5,1.8,1,3.5,1.5,5.2l2.2,6.6h1.3l2.4-6.6c0.7-1.8,1.2-3.5,1.7-5.2l0,0
	c0,1.7,0.2,4,0.2,5.9l0.3,5.9h1.7l-0.8-13.6h-2.2l-2.4,6.7c-0.7,1.7-1,3.2-1.3,4.5l0,0c-0.3-1.3-0.8-2.9-1.3-4.5l-2.4-6.7h-2.2
	l-1,13.6h1.7L152.9,18.6z M167.5,10.7h1.7v13.6h-1.7V10.7z M176.4,17.5l4.4,6.9h1.8V10.7h-1.7v5.7c0,1.8,0,3.7,0.2,5.5l0,0
	c-0.7-1.5-1.5-3-2.4-4.4l-4.4-6.9h-1.8v13.6h1.7v-5.7c0-2.2,0-3.9-0.2-5.5l0,0C174.6,14.6,175.4,15.9,176.4,17.5z M185.5,10.7h1.7
	v13.6h-1.7V10.7z M193.2,23.2c-1.2,0-2.2-0.3-3.2-0.8l-0.5,1.5c1,0.5,2.2,0.8,3.5,0.8c3.2,0,4.7-1.8,4.7-3.9s-1.2-3.2-3.5-4
	c-1.8-0.7-2.7-1.3-2.7-2.7c0-1,0.7-2,2.5-2c0.8,0,1.8,0.2,2.5,0.7l0.5-1.5c-1-0.5-2-0.7-3-0.7c-2.7,0-4.4,1.5-4.4,3.7s1.3,3,3.5,3.9
	c1.8,0.7,2.5,1.5,2.5,2.7S195.1,23.2,193.2,23.2z M204.6,24.3V12.2h4.2v-1.5h-10.1v1.5h4.2v12.1C202.9,24.3,204.6,24.3,204.6,24.3z
	 M218.7,14.4c0-1-0.3-1.8-1-2.5c-1.2-0.8-2.5-1.3-3.9-1.2c-1.2,0-2.2,0-3.4,0.3v13.4h1.7v-5.9h1.7c1.7,0,2.4,0.8,2.7,2.7
	c0.2,1.2,0.5,2.2,0.8,3.2h1.8c-0.5-1.2-0.8-2.5-1-3.7s-0.8-2.2-1.8-2.7l0,0C217.7,17.5,218.7,15.9,218.7,14.4z M213.9,17.1H212v-4.9
	c0.5-0.2,1.2-0.2,1.7-0.2c1.8,0,3.2,0.8,3.2,2.5S215.7,17.1,213.9,17.1z M225.6,24.3v-5.7l4.7-7.9h-2l-2,3.7c-0.5,1-1,1.8-1.3,2.9
	l0,0c-0.3-1-0.8-1.8-1.3-2.9l-1.8-3.7h-2l4.4,7.7v5.7L225.6,24.3z M247.6,17.5c0-4-2.4-6.9-6-6.9c-3.7,0-6.2,2.9-6.2,7.1
	s2.5,6.9,6,6.9C244.9,24.5,247.6,22.2,247.6,17.5z M237.2,17.6c0-3,1.5-5.7,4.4-5.7c2.9,0,4.4,2.9,4.4,5.5c0,3-1.5,5.5-4.4,5.5
	C238.7,23,237.2,20.6,237.2,17.6z M250,24.3h1.7v-6.2h5.2v-1.5h-5.2v-4.5h5.5v-1.3h-7.4v13.6H250z M265.8,18.5h1.7
	c1.7,0,2.4,0.8,2.7,2.7c0.2,1.2,0.5,2.2,0.8,3.2h1.8c-0.5-1.2-0.8-2.5-1-3.7c-0.2-1.2-0.8-2.2-2-2.7l0,0c1.5-0.5,2.5-1.8,2.5-3.5
	c0-1-0.3-1.8-1-2.5c-1.2-0.8-2.5-1.2-3.9-1.2c-1.2,0-2.2,0-3.4,0.3v13.4h1.7V18.5z M265.8,12.2c0.5-0.2,1.2-0.2,1.7-0.2
	c1.8,0,3.2,0.8,3.2,2.5s-1.2,2.5-3,2.5h-1.8L265.8,12.2z M276.7,10.7h-1.8v8.1c0,4.2,2,5.9,4.9,5.9s5.2-1.7,5.2-5.9v-8.1h-1.8v8.1
	c0,3-1.3,4.4-3.4,4.4c-2,0-3.2-1.3-3.2-4.4L276.7,10.7z M296.3,14.4c0-1-0.3-1.8-1-2.5c-1.2-0.8-2.5-1.2-3.9-1.2
	c-1.2,0-2.2,0-3.4,0.3v13.4h1.7v-5.9h1.7c1.5,0,2.4,0.8,2.7,2.7c0.2,1.2,0.5,2.2,0.8,3.2h1.8c-0.5-1.2-0.8-2.5-1-3.7
	c-0.2-1.2-0.8-2.4-2-2.7l0,0C295.3,17.5,296.3,15.9,296.3,14.4z M291.5,17.1h-1.8v-4.9c0.5-0.2,1.2-0.2,1.7-0.2
	c1.8,0,3.2,0.8,3.2,2.5S293.3,17.1,291.5,17.1z M302.6,10.7l-4.7,13.6h1.8l1.3-4.2h4.7l1.5,4.2h1.8l-4.7-13.6H302.6z M301.5,18.6
	l1.3-3.9c0.2-0.8,0.5-1.7,0.7-2.5l0,0c0.2,0.8,0.3,1.5,0.7,2.5l1.3,3.9H301.5z M311.3,10.7v13.6h7.6v-1.5h-5.7V10.7H311.3z
	 M325.1,24.3c1,0.2,2.2,0.2,3.2,0.2c2.2,0.2,4.4-0.5,6-2c1.3-1.3,2-3.4,2-5.2c0.2-1.8-0.7-3.5-1.8-4.9c-1.5-1.2-3.5-1.8-5.5-1.7
	c-1.2,0-2.5,0.2-3.7,0.3L325.1,24.3z M326.7,12.2c0.7-0.2,1.3-0.2,2-0.2c3.7,0,5.5,2,5.5,5.2c0.3,2.9-1.7,5.4-4.7,5.7
	c-0.3,0-0.8,0-1.2,0c-0.5,0-1.2,0-1.7-0.2V12.2z M340.2,18h5.2v-1.5h-5.2v-4.4h5.5v-1.3h-7.4v13.6h7.6v-1.5H340V18H340.2z
	 M347.1,10.7l4.4,13.6h1.8l4.9-13.6h-1.8l-2.4,6.7c-0.7,1.8-1.2,3.5-1.5,5l0,0c-0.3-1.5-0.8-3.2-1.5-5l-2.2-6.7H347.1z M367.1,12.2
	v-1.5h-7.4v13.6h7.6v-1.5h-5.9V18h5.2v-1.5h-5.2v-4.4h5.7V12.2z M369.7,10.7v13.6h7.6v-1.5h-5.9V10.7H369.7z M390.1,17.5
	c0-4-2.4-6.9-6-6.9s-6.4,2.9-6.4,7.1s2.5,6.9,6,6.9S390.1,22.2,390.1,17.5z M383.9,23.2c-2.7,0-4.4-2.5-4.4-5.5s1.5-5.7,4.4-5.7
	s4.4,2.9,4.4,5.5C388.2,20.6,386.5,23.2,383.9,23.2L383.9,23.2z M392.3,10.9v13.4h1.7V19c0.5,0.2,1,0.2,1.3,0.2
	c1.5,0.2,3-0.5,4.2-1.5c0.7-0.8,1.2-1.8,1-2.9c0-1-0.3-2.2-1.2-2.9c-1-0.8-2.5-1.2-3.9-1C394.4,10.7,393.4,10.7,392.3,10.9z
	 M399,14.8c0,1.8-1.3,2.9-3.4,2.9c-0.5,0-1,0-1.5-0.2v-5.2c0.5-0.2,1.2-0.2,1.7-0.2C397.6,12.1,399,12.9,399,14.8z M404.7,12.6
	L404.7,12.6c0.5,1.8,1,3.5,1.5,5.2l2.2,6.6h1.3l2.4-6.6c0.7-1.8,1.2-3.5,1.7-5.2l0,0c0,1.7,0.2,4,0.2,5.9l0.3,5.9h1.7l-0.8-13.6
	h-2.2l-2.4,6.7c-0.5,1.5-1,3-1.5,4.5l0,0c-0.3-1.3-0.8-2.9-1.3-4.5l-2.4-6.7h-2l-1,13.6h1.7l0.3-5.9
	C404.7,16.4,404.7,14.3,404.7,12.6z M426.7,22.8h-5.9V18h5.2v-1.5h-5.2v-4.4h5.5v-1.3H419v13.6h7.6v-1.5H426.7z M430.6,18.6
	c0-2.2,0-3.9-0.2-5.5l0,0c0.8,1.5,1.7,3,2.5,4.5l4.4,6.9h1.7V10.7h-1.7v5.7c0,1.8,0,3.7,0.2,5.5l0,0c-0.7-1.5-1.5-2.9-2.4-4.4
	l-4.4-6.9h-1.8v13.6h1.7V18.6z M444.8,24.3h1.8V12.2h4.2v-1.5h-10.1v1.5h4.2v12.1H444.8z"/>
<g id="Sep">
	<line class="st1" x1="146.2" y1="0" x2="146.2" y2="100"/>
</g>
<g id="Logo">
	<circle class="st2" cx="100" cy="50" r="40"/>
	<path class="st3" d="M130.9,43.8c-0.4-1.5-1.4-2.8-2.9-3.2c-1.5-0.5-3.1-0.6-4.6-0.5h-2.5c-0.4,0-0.8,0-0.5,0.6
		c0.1,0.5,0.1,0.9,0.2,1.4c0.2,3.8,0.4,7.6,0.2,11.4c0,1.5-0.1,2.9-0.5,4.3c-0.1,0.5,0,0.6,0.5,0.6h2.9c0.5,0,0.6-0.1,0.5-0.6
		c-0.4-1.9-0.5-3.8-0.5-5.6c0-0.9,0.2-1.1,1.1-1.2c0.9,0,1.6-0.3,2.5-0.4c1.9-0.2,3.5-1.8,3.8-3.6C131.1,45.8,131.1,44.8,130.9,43.8
		z M124.2,49.5c-0.5,0-0.5-0.1-0.5-0.5v-3.2l0,0v-3.2c0-0.5,0.1-0.8,0.8-0.8c1.9-0.2,3.5,1.1,3.8,3l0,0c0,0.1,0,0.1,0,0.2
		C128.4,47.9,127.1,49.4,124.2,49.5L124.2,49.5z"/>
	<path class="st3" d="M109.8,39.9c-3.2,6-5.6,12.5-9.2,18.4h3.8c0.5,0,0.6-0.1,0.8-0.6c0.2-1.5,0.6-3,1.2-4.5
		c0.1-0.4,0.4-0.6,0.9-0.6h5.4c0.4,0,0.6,0.1,0.8,0.5c0.8,1.4,1.2,3,1.6,4.5c0,0.2,0,0.6,0.4,0.6h4C115.2,52.4,113,45.9,109.8,39.9z
		 M107.8,50.2c-0.5,0-0.4-0.2-0.2-0.5c0.6-1.5,1.4-3.1,2.1-4.9c0.1,0.4,0.2,0.5,0.2,0.6l2,4.8C111.9,50.2,107.8,50.2,107.8,50.2z"/>
	<path class="st3" d="M95,58.1c-1.6,0.5-3.5,0.4-5.1-0.2c-0.4-0.1-0.8-0.5-0.6-0.9v-2.8c0.8,1,1.8,1.8,2.9,2c0.9,0.2,1.9,0,2.7-0.5
		c1.1-0.7,1.6-2.2,0.9-3.4l0,0c-0.1-0.1-0.2-0.4-0.4-0.5c-1.2-1.1-2.5-2.2-3.9-3.1c-1-0.8-1.8-1.8-2-3c-0.6-2.5,1-5.1,3.5-5.8l0,0
		l0,0c1.5-0.4,3.1-0.4,4.6,0.1c0.5,0.1,0.8,0.5,0.8,1v2.4c-0.4-0.1-0.8-0.4-1-0.7c-1.2-1.1-3.1-1-4.4,0.1c-0.8,0.8-0.9,2-0.1,2.8
		c0.6,0.7,1.2,1.4,2,1.9c1,0.6,1.9,1.4,2.6,2.1c2,1.9,2.1,5,0.2,7.1C97,57.5,96,58,95,58.1z"/>
	<path class="st3" d="M85.9,57c0.2,1.2,0.2,1.2-1,1.2c-1.8,0.4-2.6-0.6-3.6-2c-2.2-3.4-4.8-6.6-7.2-9.9c-0.1-0.1-0.1-0.1-0.2-0.3
		c-0.2,0.1-0.2,0.3-0.2,0.5c-0.1,3.2,0,6.5,0.2,9.8c0,0.4,0.1,0.9,0.2,1.2c0.1,0.5,0.1,0.6-0.5,0.6h-3.1c0.9-3.5,0.5-7,0.6-10.5
		c0-0.7,0-1.6,0-2.4c0.4-1.9-0.4-3.8-1.9-4.9c-0.1-0.1-0.1-0.2-0.3-0.4h3.9c0.4,0,0.5,0.2,0.6,0.5c2.5,3.9,5.4,7.5,8,11.2l0.1,0.1
		c0.4,0.6,0.8,1.2,1.2,1.8c0-0.1,0.1-0.3,0.1-0.3c0.1-3.9,0-7.9-0.2-11.8c0-1.7-0.1-1.7,1.5-1.7c0.6,0,1.5-0.2,1.9,0.1
		c0.4,0.4-0.1,1.1-0.1,1.8v0.2c-0.4,3.9-0.1,7.8-0.2,11.8C85.6,54.9,85.8,56,85.9,57z"/>
</g>
<g id="Emblem">
	<path d="M11.6,26.2c-1.5,3.4-3.4,1-5.4-2.2c-0.9-1.1-2.4-1-2.1-3.8c3.4-5.2,7.6-13.2,16-7.8c4.9-1.8-5-7.8,12.2-7
		c1,0.5,4.8-0.8,5.8,2c1.6,13.8,7-3.1,12.5,6.8c2.8,1,3.6,2.1,5.6,6c1.5,0.5-3.8,8.5-6.9,7.8c-0.2-0.4-1-2.6-1.2-1
		c7.4,10.2-7.6,17.6-3,32.4c0.9,2.1,5,0.4,5,5c0.6,2.4,4.2,5.2,3.1,8.8c-0.9,2.6-1.9,6.9-6.4,7.6c0.4,1.4-0.4,2.9-1.8,3.2
		c-0.3,0.1-0.5,0.1-0.6,0.1c-3.6-0.7-34.8,3.1-30.6-3.5C7.7,82.1,4.6,70.5,9.2,66c1.2-1.2,0.8-3.4,3-5.8c3.4,0.5,4-4.4,3-10.1
		C15.8,40.5,6.5,41.6,11.6,26.2z M21,74.5L21,74.5c0,1,1.6,1,1.7,1.9c0.4,0.8,0.9,1.4,1.5,1.9c-0.3,0-1,0.9,1.1,0.6
		c0.4-0.6-2.4-2.8-1.9-3.1c-1.2-1,0.2-3.4-2.5-2.6C20.6,73.5,20.8,73.1,21,74.5L21,74.5z M17.6,58.4c-3.1,3.6-3.1,3.2-2.7,4
		c2.9-2.5,3-1.1-0.4-0.7c0.6,1.2-1.4,1.2-0.4,2.2c0.6-1.2-0.2,2.4,4.1-1.6c-0.4,0.2-0.8,0.6-1.2,0.5c1.5-2,2.4-4.3,2.6-6.6
		c0.2-0.4,0.2-0.6,0.2,0.9c2.4-4.1,2.1-10.8,0-16c-0.9,1.5-1.9,2.8-3.2,3.8c1,4.6-0.5,8.8-1.1,14.4c0.4-0.2,0-1.9,0.6-1.9
		c0.2,0.6-0.8,1.6-0.5,3.1c0.6,0,0.5-1,1-2.4C17.6,58.8,17.6,59,17.6,58.4C17.4,57.5,16,62.9,17.6,58.4z M44.2,62c0.9-0.4,0.4,3,1,2
		c3.1,0.6-0.4-1-2.2-4.5c-1.8-4.5,2.6-13.6-3.9-16.6c1,3.5-0.9,6.5-0.1,11.1C38.9,53,43.8,69.8,44.2,62z M25.2,11.9
		c1.5-2.2,5.5-2.9,4.6,2.4c0.4,0,0.5,0.6,2,0.1c0.6-0.9-1.5-4.2,2.8-4c0.5,0.1,1.8,1.6,1.2,1.6c-0.4-1.1-3.8-1.7-3.5,1.1
		c1,1,2.1,0.1,3.9-0.4c-0.9,0.4-2.9,2.5-0.1,2.9c3.8-3.1-2.5-5.5-3.9-7.8c0.5-0.7-1.1-3.5-0.9,1C30.3,9.8,32,5.5,30,7
		c-0.5,0.4,1.6,2.1-0.8,2c1.2-1.4-1.4-4.6-0.6,0.1c-2,0-6,2.6-4.5,5.8c2.1,0.9-0.8,3.8,1,5.8c0.6,0.2,3.1,1.9,1.2-0.2
		c-1.5,0-0.6-1.4-1.6-2.8c2.4,1.1-1-1,2.5-3.5c-0.9,0-1.2-0.6-2.9-1c0.9-0.2,5.2,1.7,3.9-1.8C27.6,10.5,27,10.6,25.2,11.9z
		 M31.9,49.6c0.5-1.6-0.8-4.2-2.9-2.4c0.3,4.5-1.5,11,0.1,16.5C34.2,65.5,32.1,56.5,31.9,49.6z M19.6,72.8c1.4,0.2,2.8-0.8,3-2.1
		c0.1-0.5,0-1-0.1-1.5c1.1-1.4,1.2-4.8-1.2,0.5c1.4,3.1-2.5,2.1-5.5,1.6c0.5,0,1.1-0.8,0-0.4c0.1-0.2,1.2-1-0.2-0.8
		c0.2,0.1,0.6-2.2-0.2-1.1C15,69,16,67.4,15,68.1c0.1-0.5,0-2.5-0.9-1c0.5-3.2-4.5,0.8-2.1,3.1c0.5-0.5,0.2-1.5,0.4-2.4
		c1,0.6-0.4,2.9,0.5,4.1c1,1.6-3.9,5.6,0.1,6.6c-2.9-2.5,1.1-1.9,1.4-5.1c0.5,3,6.4-0.6,8.3,5.2C25.2,79.1,20.6,75.6,19.6,72.8z
		 M27.1,55.8c-2.2-2.9,1.9-10.9-3.6-12.1c-2.1,0.1,1,9,0,15.8c-0.8-2.5-1.1,4.1,0.8-2c0.5,1.4-0.9,2.5-1.8,3.9
		c1-0.2,0.9,2.1,0.4,1.4c-1.8-2.4-1.1,3.6-1,0c0.1-0.1,0.1-0.6,0.6-0.1c0,2.8,1.8,0,2.4-5.5c0.3,0.2,0,0,0.3,1.1
		c0.5,1,0.1,1.1,0.8,0.4c-0.8-0.4-0.8,0-0.6,0.7c0.4-1.9,0.5-2.9,1.2-0.1c0.6-0.9,0.4-1.2-0.3-4.3C26.8,55,26.9,55.1,27.1,55.8
		L27.1,55.8z M42.1,75.5c-0.4,0.4,1.4,2.6-0.1,2c0.2,4.2,1.4-0.9,2.5-5.1c0.4,1.1-1.4,5.1,2.6,2c0.9,0.1-3.8,4.5-1.2,4.4
		c0.5-1.6,4.1-4.2,1.5-6.6c-2.6-2.6-2.5-2.4-3.2-2.8c2.1,1.9-0.6,4.5,0.9,0.4c-1.6,0.1-1.8,0.4-3.4,1.5c0-1.2-0.1-0.6,1.2-1.8
		c0.1-0.1-0.1-3.9-0.7-2.9c0.4,1-2.1,1-1.2-0.6c-1.4,0.5-0.1,3.1-1.4,4c0.5-0.2,1.5,1.1-0.2,0.8c0.4,0.6,0.4-0.5,2,0.2
		c-0.2,0.1-0.7-0.1-1.4,0.5c0.2,0,0.2,0.1,0.9-0.1c-0.1,0.4-0.3,0.2-0.9,1c0.3,0.1,0.6,0,0.9-0.1c-0.1,0.3-0.4,0.1-0.9,0.8
		c0.8,0,1-0.6,2.2-1.8c0,0.6-1.8,1.6-2,2.4c0.7-0.2,0.7-0.2,2.1-2c-1.1,1.2-3.2,5.3,0.2,0.6c0.3,0-2.6,3.8-0.9,2.9
		c0.4-0.7,0.6-1.5,1.1-2.1c-0.1,0.6-0.3,1.1-0.5,1.8c-1.1,1.4-2.1,2.9-3,4.5C41,79.8,41.1,77.1,42.1,75.5L42.1,75.5z M38.1,62.9
		c-0.6-3.2-2.1-6.2-1.8-11.4c0.4-1.4,3.9-11.5-2-7.1c0.1,4.4-1.4,12.1-1.2,17.4c0.4-2.4,0.8-5.5,1.5-9.2c-0.1,3.6,1.8,9.2,3.8,11.4
		c0-0.7,0.2-1.9,0.8,0C39.5,63.9,38.6,61.6,38.1,62.9z M50.6,20.6c-0.9,1.8-3.1-0.1-2.4,4.1c0.6,0.5,2.5,3.9,3.2,1.9
		c0.5-2.5-5.7-0.1-0.2-5.8c1.2,0.4,2,1.5,2,2.8c-0.2,0-1-1.8-1.2-1.2c-0.2-0.4,2.5,4.4,1.5,0.4c0-0.2-0.1,0-0.2-0.6
		c0.1,0.5,2.8,2.8,0.2-0.4c0.1-0.6,2.2,2.2,1.6,0.5c-1.4-0.8-2.5-1.8-3.6-2.9c-0.2-1.1,3.4-4.9,2.3,0.6c-0.2,0.1-0.2-0.1-1-0.4
		c8.2,9.1-2.5-11.8-4-1.6c0.5-0.1,2.5-0.1,2.1,1c-0.5,0.1-0.9-0.8-2.6,0C48.2,20.2,48,21.6,50.6,20.6L50.6,20.6z M10,17.5
		c4.9-0.1,0.5-7.9-5.2,2.9c-0.4,1.7,2.5,0.5,2.9-2.1c-0.4-0.4-1.4-0.9,0.2-1.9c2.9,0.4,0.6,1.6-1,4c0.8,0.1,1.5-1.4,3.8-0.8
		C10.4,19.9,10.2,20,10,20c2.1-0.8,2.8,1.1-0.5,0.5c0.5,1.1,3.6,3.4,0.6,4.9c-1.5-0.6-1.5,3.6,0.4,0.8C11.5,27.4,15.6,17.1,10,17.5z
		 M43,14.4c1.4,1.6-4.4,1.5-2.4,3.5c0.9-1,3-0.4,3.1-3.5c0.4-0.1-0.1,2,0.9,1.5c-0.1-0.2,0.5-0.9,0.2,0.2c-0.1,2.9-0.5,2.9,0,2.4
		c0.1-1.8-2-0.8-0.5,0.5c0.2-2,2.1-1.2,2.8-2.9c0.2,0,0,0.1,0.4,0.5c-0.1-2.2,2.1,0,2.4-2.9c-0.2-0.4,0.1-0.1-0.9,0
		c0.4-0.6,0.4-1-0.9,0c1.9-2.1-3.5-3.4-4,0.4c-0.9,0-1.4-1.1-3,0.2C39,15.6,40.1,17.4,43,14.4L43,14.4z M15.5,16.6
		c1.5-1,2.9-6.9-3.6-4.8c0,0.4,0.8,0.1,0.4,1.1c-1-1.4-3.1,1.4,1,2.1c0.9,0.4-0.8,1.6-0.2,2c1-0.1,1.6-1,1.4-2
		c-0.1-0.6-0.5-1.1-1.1-1.4c2.1,0.5,2.2,2.9,0,4.3c3,0.6-1.5,1.4,1,2.1c1-0.4,0.2,2,1.2,1.2c0.8-0.8,0-2-0.9-3
		C15.5,19.1,17.2,18.5,15.5,16.6L15.5,16.6z M23.4,72c0.4,9.8,14.4,9.5,14.9,0.1C37.9,62.1,23.6,62.6,23.4,72L23.4,72z M15.6,66.9
		c0.5,0.9,0.5,4,2.1,4.1c0.2-0.9,4.5,2.8,2.8-1.6c0.2,0,0.4,0.1,0.9-0.9c-0.4-0.2-0.5-0.1,0.8-1c-0.5,0.1-0.1-0.6,0.1-0.1
		C24.6,65.2,15.9,65.8,15.6,66.9L15.6,66.9z M38.8,18.5c0.8,1,1.4-6.4-1.4-7c0.6-0.6,1.2-1.9-0.2-3.4c-1.2-0.2,0.9,2-0.1,1.5
		c0.5-0.8-3.3,0.1,0-2c1-1.8-4.2-1-2.6,0.6c0,0,1-1.9,1.5-0.4c-3.4,0.7,1.6,0.9,1.1,3.6c1.4,1.7,0.4,4.2,0.6,6.8
		c0.6,1.9,0.6,2.2,0.5,1.1c-1.6-2.8-1.5,1.5,0.1,1.1C37.5,18.2,39.5,20.6,38.8,18.5L38.8,18.5z M16.5,28.2c2.8,1.5,1.8-3.8-0.8-2.9
		c-0.8,0.6,2.3,2.2,1,2.5c-0.2-0.3-1.4-0.8-1.4,0.8c0.1,0,2.4,2.5,0.5,1.5c-0.4-0.4-0.6-0.6-1.1,0.2c3.8,4.2-2.1-0.5,0.8,4.6
		c-0.6,0.9-0.5-0.6-1.6-0.2c0,0.1-0.6,0.8,0.8,1.5c1-0.1,0.5,1.1,1.1,1.8c0.2-0.1,1.3-1.4-0.5-2.1c0.8-0.2,2.2-0.8,0.8-2.2
		c0.6-0.1,2.4-1.2,0.4-2.5C17.5,30.9,18.5,29.8,16.5,28.2z M23.4,17c1.2,0.2-0.6-1.4,0.5-5.6c-0.2-0.9,2.5-1.4,0.9-3.1
		c0,0.2,0.4,1-0.9,1.1c-0.9-3.1,4,1.1,1.5-1.9c4,3.7,0-4.4-2.5,1.3c0.2,0.4,1,1.2,0.2,3.7c0.4-1.5-1.5-2-1.2,0.9
		c0.1,0.8,2,1.5,1.1,2.9c-1.1-1.4-1.5-3.6-1.2,1.1C21.2,17.5,21.9,19,23.4,17L23.4,17z M31.5,16.1c0.8,0.8,4.6,0.4,2.9-1.9
		c-0.1,0.1-0.1,0.1-0.1,0.6c-0.5,1.2-3.6,1.4-5.6,0.2c0.4-1.2-1.5-2.5-0.3,0.4c3.3,1.4-0.5,1.6-2.2,0.6c0.9,1.2,1.2,1.4,4.2,0.5
		c-0.6,0.8-1.1,1-3.5,1c-0.6,0-1,0.2,0.6,0.5c0.6,0.2-0.1,0-0.8,0.6c0.8,0.5,1,0.2,2.9-0.8c1.2-2.2,1.8,1.1,4.5,0.5
		c0.5,0.5,1.8-2.4,2.2-1c0.6-2.4-1.6,1.4-4.6-0.1c0,0.1-1.6-1.5-0.5-0.8c0.2,1.1,5,1,3.7-0.6c-0.8,1-2.1,1.2-3.2,0.5L31.5,16.1
		L31.5,16.1z M13,78.4c-0.9,1.1,13,0.9,5.8-1.4c0-1-1.2-0.7-3.1-0.7c0.5-1.4-3.9-0.5-3.2,1.4c0-0.1,0,0,0.5-0.1
		C12.6,78,13,77.6,13,78.4z M13.1,30.1c1.9-0.2,2.2-1,0.2-3.1c1.2,0.1-0.5-2.5-1,0.4c0,0.6,1.5,1,1.4,2.2c-1.4-0.1-2.9-1.9-0.5,1.9
		c-0.4,0.3-0.2,0.8-1.4-0.8c0,0-0.4-0.4-0.6,0.3c-0.2,0.1,2.8,4.2,0.4,2.9c-1.6-1.6,0.4,0.9,0.2,2.4c0.4-0.1,0.2,0,0.8-0.6
		c-0.8-1.4,2.3-1-0.1-3.6C13.2,32.8,15.9,31.6,13.1,30.1z M18.9,14.2c0.5-1.1,1.8,3.1,2.2,1.2c-0.1-1-2.9-3-4.1-1.2
		c-1.5,1.6,4.9,2.1,1.5,2.5c-0.8,0-1-0.5-1.9-1.2c0.1,1.1,0.1,2.8,2.4,3.5c0,0.5-0.1,1.4,0.9,0.2c0.2-0.4-0.5-0.8-0.9-2
		C20.5,17.5,20.5,15.6,18.9,14.2z M44.9,60.4c-2.1-3.9-0.4-8-0.9-13.8c0-0.2-1.2-1.2-0.7,0.5c1,3.6-2.8,10.1,1.5,14
		c-0.5-0.6-0.9-1.4-1-2.2C44.2,59.1,43.9,59.2,44.9,60.4z M43.2,29.5c0.5,0.9,2.6,5.6,3.9,2.4c0.4-0.5,1.5-0.6,0.1-1.5
		c-5.2,5.5,2.2-5.1-2.9,0.2c-1.5-0.8,2.6-3,0.7-3c-0.1-0.2-1.5,1-1.9,0.3C46.6,26.2,40.9,24.2,43.2,29.5z M34.5,79.2
		c1.9,0.1,6.1,0.2,5.4-2.4c0.3,0.1,1.5-1,0.1-1.5c0.1-0.6-0.1-1.2-0.8-1.6c0.4-0.8,0.4-1.8-0.1-2.5c-0.2,1-0.4,2.1-0.2,3.2
		c-0.3,0-0.4,0.4-0.1,1c-0.9,0.4-1.4,1.8-3,3.2C35.9,79.2,36,78.5,34.5,79.2L34.5,79.2z M27.1,52.4c0,3.9,2.6-4.9,0.8-7.9
		C25.6,44.6,27,48.8,27.1,52.4z M40,26.9c-0.8-1.2,0.6-0.8,0.8-3.8c-0.5-1-1.2,0.5-1.4,2c-0.5-1.5,0.1-1.2,0.8-3.9
		c-0.3-0.2,0-0.2-0.9,0.4c0.3-1,1-0.9,0.9-3.4c-2.4,0-0.5,17.1,1.6,9.2c-0.4,0.2-0.5,0.2-1.1,1.5c-0.1-0.5,0-0.9-0.4-1.2
		c0.5-0.4,0.7-0.9,0.7-1.5C41.6,25.6,40.8,25,40,26.9z M32,22.6c1.6,1.6,3.1-4.2,1.1-2.8c-0.8,2.8-4,0.9-5.2-0.2
		c-0.3,0.8-0.6,4.9,2.5,2.2c-0.6,0.6,1.4,1.4,1.1,0.1l1.1,0.1C32.4,22.4,32.1,22.5,32,22.6L32,22.6z M16.5,21.9
		c0.8,2.4,6.9,3.1,0.6-0.6c-0.5-0.5-0.8-0.8-1.2,0.8c-0.5,1.5,1.2,2.6,2.2,4.1c-0.4,0.4,1.6,0.6,1-1.2C18.6,24,15.9,24.2,16.5,21.9
		L16.5,21.9z M33.5,46.1c-1.1-3.9-2.2,4.4-0.2,6.5C33.5,50.8,34.2,49.1,33.5,46.1L33.5,46.1z M46.2,67.5c-0.4-0.4,0,0-1.4-0.8
		c-0.2,0.5-0.2,0.1-0.7-0.2c0,0.2,0.1,0.4-0.4,0.2c-0.5-1.8-1.1,1.9,0,1.5c1.2,0.5,2.1,1.8,1.9,3.1c0.6,0.2,2.1-0.2,1.2-1.5
		c0.6-0.5,0.6-1.5,0.1-2.1c-0.1-0.1-0.4-0.4-0.5-0.4C46.6,68.1,45.6,67.9,46.2,67.5z M46.6,20c-1.9-0.6,2.5-2.4,0.6-3
		c-1,1-4,2-0.5,3.6c-0.9,0.8-3.6-1-2.5,2.4c0.9,0.5,1.4,0.2,0.6-0.9c0.6-0.6,2.6,0,2.8-2.8C47.9,18.8,46.8,18.8,46.6,20z M35.8,62.1
		c0.6-0.7,0.5-2-0.9-0.4c-0.4-1.5,0.2-3.8-0.5-6c-0.6,1.6-0.4,3.2-0.1,5.9c-0.8-1.1-0.6-0.7-0.8,2.1c0.5,0.7,0.6-2.8,1,0
		c0.2-0.2,0.6-0.4,0.1-1.6c0.8-0.1,0.8,2.8,1.4,1.4c-0.1-0.4-0.9-0.7,0.4-1C36.2,65.1,38.5,62.6,35.8,62.1z M29.8,34.2
		c0.1,0,3.6,5.4,4,3c-1.4-0.4-3.4-5.3-5.1-3.2c0.1,0.2-2.2,3.6-0.1,3.1C28.2,36.1,29.6,35.9,29.8,34.2z M14.6,25
		c4.2-1.2-5.9-8.2,0.2-1.6c0,0.4,0.6,2.4-1.2-0.2c-1-0.2-0.9,1.2,0.8,2.4c0.1,0.2,0.6,0.8-0.4,1.8C14.9,28.2,17,26,14.6,25z
		 M36.9,54.2c1-1.6,2.6-7.1,1.1-10C37.5,47.6,37.1,51,36.9,54.2z M19.5,26.8C18.9,25.5,19,28,19,29.6c-1.9-2.1-0.2,0.8-0.5,1.8
		c-1.6,0,0.1,1-0.6,2.2C18.1,35.8,20.9,29.6,19.5,26.8L19.5,26.8z M50.5,67.2c-0.2,2.8,0.1,5.9,0.1,10.2
		C51.8,74.2,51.6,70.6,50.5,67.2z M34.1,32.5C33.4,32,33,30.6,31,29.4c-1.2,1.9-0.4,1,2.4,4.2C33.5,33.5,33.8,33.4,34.1,32.5z
		 M27,61c-0.8,0.1-0.8-3.1-1.4-0.5c-0.9-0.6-1.9,1.1-1.2,3.5c-0.1-0.7,1.1-2.4,1,0c1.5-0.7-1.2-1.4,0.4-2.9c0.5,0.9,0.8,1.9,0.8,2.9
		c-0.1-0.6,1-1.8,1.2-2.5C27.2,61.4,26.2,62.4,27,61z M22.6,53c-0.8-1.9,0.1,2.1-1.9,7C24.1,59.8,22.2,57,22.6,53z M24.9,23
		c-0.5-0.5,0.1-2.9-1.6-0.9c-1.9-1.2-0.1,0.3,0.6,2.4c0.4,1.9,3.4-2.8,1.6-1.4C25.6,22.5,25.1,21.4,24.9,23z M36,23.1
		c-1.8-1.2,0,0.1-0.2,1.6c-0.5,0.2,0.5,0.8,1.1-0.6c0.8-0.3,2.6-2.6,0.3-3.5c0,0-0.5,0.2,0.1,0.5c0.2,0.2,0.6,0.6-0.5,0.2
		c0.4,0.5,0.6,4-0.4,0.1c0,0.4,0,0.8-0.1,1.1L36,21.9C35.6,22.4,36,22.8,36,23.1z M37.6,57.4c-0.1,4,2.6,3.8,0.9-2.4
		C37.9,54.5,37.6,56,37.6,57.4z M48.9,67.1c-0.5,3.1-0.1,6.8,0.2,11.2C49.5,74.6,49.5,70.9,48.9,67.1z M23.9,19.6
		c0.6-1.2-1.9-2.2-2,0c0.9,1.6,2.9,2.6,2.8-1C23.9,18.2,24.4,18.8,23.9,19.6L23.9,19.6z M41.4,35.1c0.6-1-0.1-2.1-1-1.2
		c0.4,0.5,0.7,3.2,1.5,1c0.6,0.9-2,2.5,0,3.9c-0.8-1.9,0.6-0.2,0.9-3.2C42.8,35,42.1,33.6,41.4,35.1L41.4,35.1z M21.1,23.6
		c-1.6-2.8-1.1-0.6-0.5,2.2c-1.1-1.6-1.2-0.2-0.5,1.9c0.6-1.2,1.9-2.8,1.1-5.1C21.1,23,21.2,22.8,21.1,23.6z M16.5,46.4
		c-0.1-0.8-0.4-1.5-0.9-2.1c-0.4,1.1-0.5,4.9,0.6,6.5c0.2-0.6,0,0,0.2-1.6C16.4,48.2,16.4,47.2,16.5,46.4z M44.5,32.8
		c-0.5-1.2-0.5,0-1.5,0.9c-0.2-0.1-0.7-0.9,0.3-2.1c-1-2.2-1.8,2.5,0.4,4.4C43.5,34.8,43.9,34.8,44.5,32.8z M28.2,31.4
		c-0.9-1.5,1.9-1.1,1.9-3.4c-0.5-0.5-0.1-0.3-1.4,0C28.9,28.1,25.8,30.6,28.2,31.4L28.2,31.4z M48.5,35.8c3-5-2.1,0.5,0-2.6
		C50,30.6,44.9,32.8,48.5,35.8z M30.2,31.2c0.3-2-5,1.8-2,3c0.1,0,0.3-0.1,0-0.6C28.4,32.4,29.2,33.1,30.2,31.2z M49.6,67.4
		c-0.1,3.6-0.1,7.2,0.2,10.9C50.4,74.6,50.2,71,49.6,67.4z M30.5,18.6c-3,0.4,0.2,4.7,2,1c-0.6-0.1-0.9,1.4-1.8,0.8
		C31.8,19.9,32.8,19.4,30.5,18.6z M45.2,26.1c0.2,0,0,0,0.4-0.1c-1.5-1.1,3.5-2.2,1.6-4C47.2,22.4,43.5,24.4,45.2,26.1z M41.6,22.1
		c-1.1-1.1,1.2-0.6,2.5-1.7C44.5,18.2,38.1,20.8,41.6,22.1z M17.1,18.5c-2.4,1.5,5.1,5.5,1.4,1.2C18.5,19.4,17.5,19.6,17.1,18.5z
		 M34.1,35c0.4,0.2-4.2-4.8-3.3-1.2c0.4,0.6,0.9,0.1,1.9,1c0.1,0.2,0,0.2-0.1,1.1C33.1,35.9,33.2,36.2,34.1,35z M9.6,67.2
		c-0.2,3.1,0.8,7.2-0.2,11.8C10.9,76.2,10.4,71.5,9.6,67.2z M31,27.9c0.5,1,0.6,1.4,2.4,2.6c0,0.4-0.6,1.6,0.6,0.6
		C34.2,30.2,33.1,27.5,31,27.9z M39.6,66.9c0.1-1.1-4.1-0.9-1.5,0.5c0,0.4-0.4,0.5,0.2,0.8c-0.2,1,0.9,3.8,1.2-0.5
		C39,67.5,39.8,67.5,39.6,66.9z M43.5,16.9c-1.4-0.2-5.1,3.9-1.6,2C42.6,19,43.2,19.1,43.5,16.9z M26.4,24.4c-1.8-3.1,0.6,6.5,2-0.1
		c-0.6,0.1-0.4,1.5-1,0.1c-0.5,0.2-0.5,0.9-0.6-0.6L26.4,24.4z M8.4,23.6c-0.2,0.1,0,0.1-0.1,0.8c0.2-0.2-1.1-2.2-0.9-0.8
		C7.6,23.9,8,25,7,23.8c-0.5,2.9,6.8-0.2,2.1-2.5c0.1,1.1,2.8,1.8-0.4,3.1C8.5,24.2,8.8,24.4,8.4,23.6z M30.8,39.2
		c1.5,4.4,3.5-0.8-1.2,0C28,41.1,28.1,43.5,30.8,39.2z M52.1,25.6c0.5-0.1,2-2.1-0.2-0.4c0.1-0.8,1.4-2.1-0.4-0.6
		c0,0,0.4-1.1-0.5-0.4c-0.6-1.1-1.8,0.6,0.2-3c-0.2,0.5-3.4,3.1-0.6,3.4C50.9,24.2,52.1,26.9,52.1,25.6z M13,41.2
		c0.4,0,1.7-1.2,2-2.5c-0.2,0.2-1.1-2.5-1.8-1.9c-0.5,0.6,3.2,3.6-0.4,2.1c-0.1,0-0.8-0.5-0.4,0.2C12.6,39.8,14.1,40.4,13,41.2z
		 M41.2,23.8c-0.4,1.2,2.6,0.1,2-1.9C42.6,21.4,41.6,22.2,41.2,23.8z M43.9,75.9l-0.4,1.2c0.2,0.1,0.5-0.1,0.4,0.5
		c-0.1,0-0.3,0.1-0.4-0.1c0,1.8,0.7,2.4,2.1-0.9c-0.6-0.5,0.1,0.1,1-0.7C45.6,76,44.8,76,43.9,75.9L43.9,75.9z M34.8,35.2
		c-1,0.5,0.6,0.8,0.9,2.6c1.6-0.8,0.4-2.6-1.5-4C34.2,34.6,34.1,34.1,34.8,35.2z M35.6,33.1c2.9,1-0.4-4.8-1-2.2
		C34.1,31.6,36.5,31.6,35.6,33.1z M22.1,49.1C22,48.2,23,44.8,22,43.5C21.2,44.9,21.2,46.5,22.1,49.1z M17.6,40.4
		c0.4,0-1.7-2.6-1.6-1.2c0.1,0.4,1.5,1,0.6,2C14.9,38.6,15.1,45.9,17.6,40.4L17.6,40.4z M26.5,33.5c-0.6,0.5-2.8,2.6-0.6,3.4
		C25.1,35.1,27.9,36.2,26.5,33.5L26.5,33.5z M31,24.8c0.6,0.4,0.1,1.2,0.1,2.1c0.8,0.1,3,0.2,1.5-2.1c-0.2,0.2-0.1,0.1-0.2,0.9
		C32.2,24.9,31.6,24.5,31,24.8L31,24.8L31,24.8z M8.8,77.6c0.9-2,1.8-8.1-0.5-10.4C9.5,70.6,9.6,74.1,8.8,77.6z M27.2,27.4
		c-0.6-0.5-3,3.5-1.1,2.6C25.9,29.2,29,28.2,27.2,27.4z M33.2,24.5c-0.1,0.9,0.5,0.3-0.1,2.1c0.4,0.1,2.5,0,1.9-2
		c0.2,0,0.6-0.2-0.2-1.1c-0.1,0.5,0,1-0.2,1.4C33.5,23.4,34.9,26.1,33.2,24.5z M6.1,23.1c0.8-1.4,1-0.1,2.6-2.6
		C9,20.2,9,19.6,8.1,20.4c-0.2,0.4-2.6,0.6-2.5,2.1C6.4,21.9,6.9,20.9,6.1,23.1z M34.5,31.8c2,3.4,1.6,3.5,2.1,2.6
		c-2.5-2.1-1.6,0.2-0.5,1C36.4,33.8,35.6,33.2,34.5,31.8z M48.6,30c-0.7,0,0-2.1-1-2.1C47,28.1,46.5,28,47,26.6
		c0.7-0.4-0.6-2.8-0.9,0.9c-0.4,0.9,2.8,0.4,1.1,1.5C47.5,29.1,47.4,29.6,48.6,30z M41.8,26c0.1,0.4,0.6,1.5,1.2-0.4
		c0-0.2,1.8-0.5,0.9-1.6C43.2,23.8,42.4,24.8,41.8,26L41.8,26z M28.8,24.6c-1,0.3-0.1,3.5,1.9,1.8c-0.1-0.2-0.9-0.1-0.5-1.1
		c0.1-0.4,0.6-1.1-0.6,0.1c0-0.3,0-1.2-0.6,0L28.8,24.6z M34.1,27.6c-1.4-0.1,1.6,3.5,2.4,2.4C36.5,29.1,35.6,28.8,34.1,27.6z
		 M44.9,37.9c-1-0.9,2.4-3.8,0.4-4.2C44.6,34.8,43.6,35.6,44.9,37.9z M36.4,18.1c0.8-1.2-2.8,1.6-1.8,2.9
		C34.9,20,37.2,20.1,36.4,18.1z M52.1,68.2c-0.5,1.5-0.1,4.5-0.2,7.5C52.6,73.4,52.6,70.8,52.1,68.2z M10.5,74
		c1.1-1.5,0.2-4-0.2-6.4C10.2,69,10.4,71.4,10.5,74z M24.4,38.6c-1.2-0.1,0.6-3-0.9-2.2c-1.1,0.9,1,2-0.1,2.8
		C23.1,39.6,23.9,41.2,24.4,38.6z M40.8,38.2c-0.1,0.8-1.9,3.1-1,3.6C40.4,41.1,41.6,40.2,40.8,38.2z M42.2,43
		c-0.2,0.9,1.5,0.6,1.6,1.2c-0.3,0.3-0.4,1.1,0.7,1.1c-0.9-1.6,1.9-2.1-2.1-2C42.6,43.2,44,40,42.2,43z M30.1,37.5
		c0.3-1.5-3.1,0.9-1.8,2.2C28.8,38.9,29.1,39.1,30.1,37.5z M46.9,60.9c0.8,0.5,1.4,3.1,2.1,3.9c-0.4-0.9,0.4-2.1,0.6-0.2
		c0.9-1.1-0.5-1-1.6-2.5C48.1,61.6,48.2,60.5,46.9,60.9L46.9,60.9z M23.2,32.1c-0.4-0.8,3-2,0.8-2.6C23.9,29.8,21.9,31.1,23.2,32.1
		L23.2,32.1z M26,33.4c-1-0.2,2.1-2.5-0.3-2.5C25.5,31,24.1,32.6,26,33.4L26,33.4z M34.2,40.5c-0.1,1.2,2.5,3.4,0.8-0.6
		C35.1,39.8,33.6,37.6,34.2,40.5L34.2,40.5z M43.4,37c-0.2,0.2-2.5,2.5-0.1,3.2C42.1,39.4,44.6,38.6,43.4,37L43.4,37z M47.1,64.6
		c0.2-0.1,1.2-3.1-1.2-3.4c-0.5,0.4,0,0.8,0.9,1.8C46.9,63.1,47.1,63.2,47.1,64.6L47.1,64.6z M17.9,38.9c0.5,0-0.1-1.4,1.4-1.6
		c0.1,0.1-0.1-1.6-0.9-0.5C16.9,37.2,16.9,36.6,17.9,38.9z M26.8,43.8c-0.9-0.8,1.5-2,0.5-2.9C26.8,41.2,24.5,43.2,26.8,43.8z
		 M32.6,7.8c-0.1,2.2,3-2.3,0.8-1.5C33,6.5,32.8,6.6,32.6,7.8z M25.5,39C25.2,38.4,25.5,38,25.5,39c0.6-1.9,0.9-2.2,0-1.1
		C26.2,39.1,28,37,25.5,39z M44.2,42c-0.5-0.9,0.8-2,0.4-3.5C44.2,39.2,42.4,40.6,44.2,42L44.2,42z M23.6,35.2
		c0.4-0.8,1.5-4.5-0.8-0.9C22.9,34.4,22.6,35.2,23.6,35.2z M30.4,41.1c-0.1,1-3.1,1.6-1.5,3.1C29,43.2,30,43.5,30.4,41.1z
		 M30.4,36.6c-0.6,0,2.6,4.4,1.9,1.2L30.4,36.6z M14.5,61.1c-0.5-1-2.5,0.6-1,1.9C14.2,62.6,13.9,62.5,14.5,61.1z M48,39.6
		c-1.9-1.1,1.6-1-0.1-3.1C48.5,36.9,45.2,39.5,48,39.6z M23.2,28.4c0.1,1,3-1.2,1.5-1.6C24.5,27.4,23.8,26.9,23.2,28.4L23.2,28.4z
		 M21,63.9c-0.1,0.1,2.1-4.6,0.5-3c0.3,1.4-2.5,1.2-1.4,3.1C19.8,62.8,21.2,61.9,21,63.9z M20.9,16.4c0.4,0.8-2,1-1,1.8
		c0.4-0.4,0.5,2.1,1.3,1.1C20.9,18.2,20.9,17.4,20.9,16.4z M35.8,39.6c0.8-0.4-0.1-1.6-1.4-3.2C33.5,37.6,35.4,38,35.8,39.6z
		 M46.2,38.6c-0.4-0.8,1.4-2.5,0.2-3.1C45.8,36.4,45.6,37.6,46.2,38.6L46.2,38.6z M10,78.8c0.4,0,1.5-3.2,1.4-4
		C9.6,74.5,11,76.5,10,78.8z M28.1,7.5c0.1-1.1-2.5-1.6-0.5,1C28.1,8.2,27.9,8.5,28.1,7.5z M11.4,73.1c0.5-0.8,1.1-2-0.2-3
		C11,71.2,11.1,72.2,11.4,73.1z M26,41.9c-0.8-1.2,1.5-1.4,1.1-3.1C26.5,39,24.6,40.5,26,41.9L26,41.9z M30.8,41.5
		c-0.6,1,2.2,3.1,1,1.5C32.2,42.9,32.2,42.1,30.8,41.5L30.8,41.5z M8.2,68.6v7.1C8.6,75.4,8.6,69.8,8.2,68.6z M17.2,36.4
		c1.4,0.4,1.2-2.8-0.1-2.1C19,36.4,14.8,35.5,17.2,36.4z M11,62.5c-1.1,1.9,2.8-0.4,1.4-2.1C12,60.5,12.4,62.5,11,62.5z M39.4,28.8
		c0-0.9-3-1.9-1,0.2C38.9,29.5,38.6,29.5,39.4,28.8L39.4,28.8z M19.4,62.9c0.1-0.6,1.8-0.5,1.5-2.5C20.5,61.6,18.6,60.5,19.4,62.9z
		 M38.1,29.4c-0.5-0.9-1.6-2.4-1.2,0.8C37.8,30.1,37.4,30.4,38.1,29.4z M10.9,35.4c-0.2,0.4,0.9,1.8,0.8,2.8
		C12.5,37.8,12.6,37.2,10.9,35.4z M37.9,32.8c1.1-0.1,0-3.6-0.9-1.4C37.1,31.6,38,31.6,37.9,32.8z M40.4,62.8c-0.1,0,0-0.4-0.6,0
		c0.1-1-1.9-3.5-0.4,0.5C40,64.4,39.4,63.6,40.4,62.8L40.4,62.8z M38.1,35c0.8,0,0.9-2.5-0.9-1.6C36.9,34,38.2,33.9,38.1,35z
		 M18,42.2c0.8,0.1,2.1-2.1,0.4-2C18.4,40.6,17.9,41.6,18,42.2z M44.9,41.8c0.4,1.4,0.8,0.6,1.5-2C46,40.4,45.8,39.9,44.9,41.8z
		 M19.9,76.2c0.4,0.5,2.4,1,1,2.8C22.4,79.4,22.4,76.6,19.9,76.2z M22.6,27.2c1-0.4,1.1-3.3-0.2-1.1C22.1,26.5,22.1,26.8,22.6,27.2
		L22.6,27.2z M38.9,31.4c1.2,0.8,1.6-2.8-0.2-1.2C38.4,30.4,39.5,30.8,38.9,31.4L38.9,31.4z M38.1,37.5c1.1-0.5-1.1-3.6-1.1-1.4
		C37.5,36.5,37.9,37,38.1,37.5z M47.8,76.4c0.2,0.1-1.1,2.8,0.1,2.5C47.9,78.4,49.1,77.5,47.8,76.4z M26.4,79.4
		c-0.2-0.9-3.9,1.4-1.1,1.4C25,80.2,25,80,26.4,79.4z M39.1,34.5c0.9,0.1,0.8,2.6,1.1,2.4C40.1,37,41.2,34.1,39.1,34.5z M21.1,22
		c0.1-0.2-0.4-3.1-1.2-1.6C20,21.1,20.5,21.6,21.1,22L21.1,22z M21.9,65.6c0.2,0.1,1-1,1-1.6C22.5,63.8,20.2,65.2,21.9,65.6
		L21.9,65.6z M28.1,61.6c0-1.9-0.1-3.6-0.4-5.5C27.4,58,27.5,59.9,28.1,61.6L28.1,61.6z M20.1,65.6c1.4-0.1,1.1-3-0.5-0.4
		C19.5,65.5,19.6,65.5,20.1,65.6L20.1,65.6z M24.8,79.4c0.2-0.2-2.8-0.2-1.6,1.2C24.1,80.8,23,80.1,24.8,79.4L24.8,79.4z M33.8,42.1
		c-0.1-1.2-2-0.5-0.8,0.9C33.2,42.9,33.5,43,33.8,42.1L33.8,42.1z M29,16.4c-0.8,0.4-1.9-2.5-2.2-0.8C27.1,16,27.4,16.4,29,16.4z
		 M21.1,35.8C20.9,35.1,21,34.9,21.1,35.8C22,35.4,22.6,32.1,21.1,35.8z M41.6,31.1c0,0.1,1.9-2,0.4-1.9
		C42.1,29.6,40.9,29.8,41.6,31.1z M32.1,15.4c0.5,1.1,2.4-0.8,1-1.5C32.6,14.1,33.6,15,32.1,15.4z M21.2,37.4
		c-0.2,1.5,2.1-1.1,0.8-1.2C21.6,36.4,21.4,36.9,21.2,37.4z M51.8,19L51.8,19C52.1,19.9,54.4,17.8,51.8,19z M40.2,32.9
		C40,33.5,39.8,33.6,40.2,32.9C40.5,32,37.6,32,40.2,32.9z M41.9,39.6c-0.2,0.4-1.8,2.2,0,2.8C41.1,41.4,42,41.6,41.9,39.6z
		 M22.9,38.8C22.6,39.4,22.5,39.6,22.9,38.8C22.9,37.2,20.6,40.1,22.9,38.8z M21.5,30.2C21.1,29.9,21.2,29.5,21.5,30.2
		C22.4,30,23.1,27.5,21.5,30.2z M18.9,13.1C17.9,13.4,17.4,13.2,18.9,13.1c0-0.1,0,0-0.4-0.2C18.8,13,16.1,11.5,18.9,13.1z
		 M25.5,83.4C25,83.4,24.9,83,25.5,83.4C26.8,83.5,24.5,80.8,25.5,83.4z M15.1,43.1L15.1,43.1C15.1,40.2,13.1,45.4,15.1,43.1z
		 M27.5,64c-1-1.6,0.1-1.1,0.6-0.4C28.8,61.8,25.2,62.2,27.5,64z M35.5,82.9c0.4-0.7-1.8-1.1-0.8,0.5C35.2,83.6,34.9,83.4,35.5,82.9
		L35.5,82.9z M41.1,64.5C42,64.5,42.4,64.9,41.1,64.5c0.4,0.4,0.8,0.8,1,1.2C42.5,66,43.1,66.1,41.1,64.5z M37.5,38.8
		c0.6,1.8,1-1.8-0.8-0.4C36.9,38.6,37,38.8,37.5,38.8z M12.4,64.6c1.7,0.6,0-3.2-0.1-0.6C12.2,63.1,13.4,63.4,12.4,64.6z M36.9,82.2
		L36.9,82.2C36.6,83.4,38.8,84,36.9,82.2z M27.1,82.2c-1-0.4-0.6,2.4,0.5,0.5C27.6,82.5,27.6,82.8,27.1,82.2L27.1,82.2z M33.5,82.2
		c-1.2-0.2,0.4,2.3,0.6,0.6C34.1,82.6,34.1,82.4,33.5,82.2L33.5,82.2z M21.2,33.1c0.4,0.1,1.4-2.6,0.1-1.6
		C21.2,31.9,21.1,31.8,21.2,33.1z M22.9,79.5c-0.1-0.6-3,0.8-0.6,1.1C22.6,80.2,21.6,80.1,22.9,79.5L22.9,79.5z M32.1,82.4
		c-1.5-0.1,0.8,2.4,0.6,0.1C32.5,82.4,32.4,82.4,32.1,82.4L32.1,82.4z M36.8,42c0.2,0.2,1.6-1.5,0.1-2C36.4,40.6,37.2,40.2,36.8,42
		L36.8,42z M22.8,65.5C23,64.5,23.4,64.2,22.8,65.5C23.4,66,25.2,63.5,22.8,65.5z M36.1,82.1c-0.6-0.2-0.2,2.2,0.6,1
		C36.6,83,36.9,82.2,36.1,82.1z M43.6,65.9c0.4,0.1,0.5-1.6-1-1.2C43,64.9,42.8,65.5,43.6,65.9z M16.9,65.8c0.4-0.1,0.4-0.4,1-1.4
		C17.6,64.1,15.8,65,16.9,65.8z M23.9,83.4c0.8,0.1,0.3-1.8-0.6-1C23.4,82.9,23.1,82.9,23.9,83.4z M30.1,44c-0.6,1,0.9,2.1,0.6-0.2
		C30.6,43.8,30.4,43.4,30.1,44z M24.2,42.4c-0.6,0,0.8-1.6,0.1-2.1C24,40.8,22.8,41.9,24.2,42.4z M36.5,64.5
		C37.5,64.5,37.8,64.9,36.5,64.5C36.5,64.6,38.9,67.4,36.5,64.5z M35.6,27.9c0.1,0.4,2.1-0.8,0.2-1.2C35.8,26.9,35.9,26.9,35.6,27.9
		z M39,82.2c-0.9,0,0.1,2.5,0.6,0.2C39.5,82.5,39.6,82.4,39,82.2z M11,24.4c-1.1-0.1-2.1,0.5-2.6,1.5C9,25.8,9.2,25.1,11,24.4z
		 M16.6,64.5c-0.4-0.6-2.4,0.9-1,1.2C16.1,65.6,15.5,65.2,16.6,64.5z M19.6,64.5c-1.2,1.1-1.6,1.1-0.8,1c0.5-1-0.1-1.8-0.8,0
		C19.1,65,18.8,65.5,19.6,64.5L19.6,64.5z M44,64.8c0.1,0.4,1,1.9,1.5,1.1C45.1,65.8,45.4,64.9,44,64.8L44,64.8z M39.8,64.5
		c-0.4,0,1.4,2.4,1.4,0.9C40.6,64.9,40.8,64.5,39.8,64.5L39.8,64.5z M35.2,64.5C36.2,65,35.9,64.8,35.2,64.5c0.2,0.4,0.4,0.2,0.6,1
		C36.1,65.8,37.5,66.1,35.2,64.5L35.2,64.5z M36.4,79.9C37.2,79.9,37.5,80.1,36.4,79.9C36.4,80.1,37.4,82.1,36.4,79.9L36.4,79.9z
		 M27.8,82.9c-0.4,1.1,2.2,0.2,0.5-0.4C27.9,82.4,28.2,82.4,27.8,82.9L27.8,82.9z M27.1,79.8c-0.6-0.5-2.8,1.5-0.5,1.1
		C26.4,80,26.4,80,27.1,79.8L27.1,79.8z M39.9,79.9c0.1,0.6,1.6,1.8,1.1,0.1C40.6,79.8,40.8,79.6,39.9,79.9L39.9,79.9z M20.2,80.5
		C19.5,80.6,19.2,80.4,20.2,80.5C20.1,79.6,19.8,78.1,20.2,80.5L20.2,80.5z M33.9,79.9C34.4,79.6,34.6,79.9,33.9,79.9
		C33.9,80.4,36.1,81.8,33.9,79.9L33.9,79.9z M12.1,73.4c-0.2-0.2-2,0.6-1,1.2C11.8,74.5,11.5,74,12.1,73.4z M41.2,33.2
		c-0.2,0,0.8-2-0.2-1.8C40.6,32,40.8,32.8,41.2,33.2z M45.2,64.9c0-0.4,1.1,2.4,1.5,0.6C46.5,65.2,46.4,65,45.2,64.9z M29.2,80.1
		C30,80.1,30.2,80.2,29.2,80.1C28.8,80.6,31.1,81.5,29.2,80.1z M38.1,64.5c0.2-0.1,0.9,2.1,1.5,0.9C39.1,64.9,39.4,64.6,38.1,64.5z
		 M22.9,40.9c-0.1-1.1-1.6,0.4-0.4,1.2C22.6,41.8,22.8,41.2,22.9,40.9z M22.5,83.2c0.9,0.4,0-2.1-0.6-0.8C21.9,83,21.8,83,22.5,83.2
		z M40.1,83c-0.3,1,2,0,0.1-0.8C40.1,82.2,40,82.2,40.1,83L40.1,83z M29,80c-0.4-0.5-2.1,0.5-0.2,1C29,80.9,28.9,81,29,80z
		 M39.5,56.6c0.1,0.6-0.6,0.6,0.8,2.9C40.2,58.5,40,57.5,39.5,56.6L39.5,56.6z M20.9,14.1c-0.1-0.8-1-1.6-1.5-1.4
		C19.8,13.2,19.4,13.4,20.9,14.1L20.9,14.1z M21.2,83.2C20.5,83.2,20.4,82.9,21.2,83.2C21.6,82.9,20.1,81.2,21.2,83.2z M33.1,80.9
		c0.9,0.5,1.2-1.5-0.4-1C33,80.1,33.1,80.5,33.1,80.9L33.1,80.9z M19.4,39.4c0.2,0-0.9-2-0.8-0.8C18.8,38.9,19,40.6,19.4,39.4
		L19.4,39.4z M29.2,82.9c-0.5,1.2,2.4-0.5,0.1-0.5c0,0,0,0.1,0,0.5H29.2z M16.9,79.1c-0.2-0.5-2.4,0.9-0.5,1
		C16.8,79.8,15.8,79.6,16.9,79.1L16.9,79.1z M31.2,82.9c0.2-0.9-1.8-0.6-0.5,0.5C31,83.4,31.2,83.5,31.2,82.9L31.2,82.9z M25.6,64.1
		c-0.4-0.8-2.4,2.1-0.6,0.9C25.1,64.8,25,64.8,25.6,64.1L25.6,64.1z M15,64.5L15,64.5C14.9,63.9,13.1,66.4,15,64.5z M38,80.9
		c0.6,0.4,1.5-1.1-0.4-1.1C37.9,80.1,38,80,38,80.9z M28,79.9c-0.1-0.5-2.1,1.1-0.1,0.9C27.8,80.2,27.8,80.6,28,79.9z M11.2,65
		c0.5,0.2,0.9-2.1,0.1-1.1C11.6,64.2,10.1,64.5,11.2,65z M21.1,40.1c0.2,0.1,0.4-1.4-0.6-1.1C20.4,39.4,20.1,39.6,21.1,40.1
		L21.1,40.1z M30.9,80.4c-0.2,0.8,1.9,0.5,0.6-0.4C31.2,80.1,31,80,30.9,80.4L30.9,80.4z M38.5,27c0-0.4-1.2-2.5-0.6,0.1
		C37.9,27.1,38.1,27.5,38.5,27z M38.5,42C38.1,41.9,38.1,41.6,38.5,42C39.1,41.8,38.8,39.5,38.5,42z M20.4,58.9L21,56
		C20.2,56.9,20,57.9,20.4,58.9z M35.5,81c1,0.2,0.9-1.2-0.4-1.2C35.4,80.2,35.4,79.8,35.5,81z M39.6,39.2c-0.1-0.4-1.4-1.8-0.6,0.5
		C39.2,39.9,39.4,40.1,39.6,39.2z M20.2,29.8C20.2,29.4,20.2,29.2,20.2,29.8C20.2,31.4,21.8,28.6,20.2,29.8z M18.1,79.2
		c-0.2,0-0.2-0.2-1.1,0.4c-0.1,0.6-0.1,0.2,0.9,0.5C17.9,80,17.2,79.6,18.1,79.2z M30.2,81.2C30,81.9,29.6,81.9,30.2,81.2
		C30.1,81,27.8,81.8,30.2,81.2z M12,65.9c0.4,0,1.4-2.1-0.2-0.6C11.8,65.4,11.4,65.6,12,65.9z M19,82.1c-0.5,0,0.1,2,0.6,0.9
		C19.5,82.9,19.8,82.6,19,82.1z M25.5,65.1c-0.3,0.6,1.6-0.5,0.9-1C26.1,64.1,26,64.2,25.5,65.1z M13.9,64.6
		C13.8,65.2,13.8,65.5,13.9,64.6C13.5,64.2,12.4,66.2,13.9,64.6z M38.8,36.2c0.4-0.1-0.1,1.8,0.9,1.4C39.8,37,39.4,36.4,38.8,36.2
		C38.9,36.2,38.9,36.2,38.8,36.2L38.8,36.2z M31.5,81.2c-0.1,0.2-1.1-0.5-1.2,0.6C30.4,81.8,31.2,82.2,31.5,81.2z M21.4,79.4
		c0-0.4-2.1,0.8-0.2,1.1C21,80.1,20.8,79.9,21.4,79.4z M43,82.6c-0.1,0-0.1-0.4-0.7-0.2C42.2,82.9,42,84.1,43,82.6z M41,62.2
		c-0.1,0.1,0,0,0,0.4c0.1-0.1,0,2.2,0.7,0.9C41.5,63.1,41.8,63.4,41,62.2z M20,37.8c0,0.2,0.9-1.8-0.2-1.1
		C19.8,37.1,19.8,37.5,20,37.8z M16.4,43.4C16.9,42.8,17,42.4,16.4,43.4C17,43.8,18,42.5,16.4,43.4z M32,80.9
		C32.2,80.5,32.1,80.2,32,80.9C33.2,81.4,32.8,79.2,32,80.9z M19.2,79.2c-0.4-0.1,0,0-1,0.5c0,0.5-0.1,0.1,0.9,0.5
		C19,80.1,18.5,79.8,19.2,79.2z M47.9,66c0.4-0.2-1.6-1.5-0.8-0.6C47.4,65.2,47.4,66.9,47.9,66z M43.5,80.4c0.4-0.1-1.2-1.2-0.6-0.1
		C43,80.5,43.2,81.4,43.5,80.4z M21.8,27.5C21.5,27.9,21.4,28.1,21.8,27.5C21.6,26.5,20.4,27.6,21.8,27.5z M20.2,33.9
		c0.3,0.2,0.6-1.9-0.1-1.2C20,33,20.1,33.5,20.2,33.9z M38.9,79.8c0.2-0.1,0,1.9,1,1C39.8,80.2,39.4,79.8,38.9,79.8z M44,79.8
		c-0.5-0.2,0,1.8,0.5,0.6C44.4,80,44.6,80,44,79.8z M41.8,80.9c0.4,0.2,0.9-1.4-0.6-1.1C41.6,80,42,80.2,41.8,80.9z M18,83.2
		c-0.1,0,0.5-1.6-0.5-1C17.5,82.5,17.2,82.8,18,83.2z M41.2,43C41.8,43.2,41.6,43.5,41.2,43C40.6,42.9,41.1,44.5,41.2,43z M33.9,40
		c0.1,0-0.9-1.2-0.8-0.4C33.1,39.5,33.4,40.9,33.9,40z M32.6,81.2c-0.1,0.1-0.9-0.5-1.1,0.6C32.2,82,32.5,81.9,32.6,81.2z
		 M27.9,81.8c0.8,0.2,1.1-1.4-0.3-0.2C27.5,81.6,27.6,81.8,27.9,81.8z M40.1,42.1c-0.3,0.2,1.5,1.1,0.5-0.2
		C40.6,41.9,40.4,41.6,40.1,42.1z M20.5,35c0-0.6-1.1-0.8-0.5,0.2C20.1,35.1,20.4,35.6,20.5,35z M27,81.2c-1-0.1-0.6,1.4,0.4,0.1
		C27.4,81.2,27.2,81.2,27,81.2z M43.8,83.2c0.4,0.2,1.4-0.8,0.5-1.1C44.1,82.5,44,82.9,43.8,83.2z M52.8,72.8c0-0.1,0.9-0.5,0-1.5
		V72.8z M46.8,79c-0.1-0.5,0.9-1.2,0-1.4C46.6,78,46.5,77.6,46.8,79z M41.6,66.6C41.5,67.1,41.2,67.1,41.6,66.6S40.2,66.1,41.6,66.6
		z M7.5,73.4c0,0,1.1-0.6,0-1.5C7.6,72.4,7.6,72.9,7.5,73.4z M21.5,41.5c0.3-0.6-1.2-0.6,0,0.6C21.6,42.1,21.6,42,21.5,41.5z
		 M16.1,82.2C16.5,82.2,16.5,82.5,16.1,82.2C15.5,82,16.4,84.1,16.1,82.2z M25.8,81.2c-1-0.1-0.4,1.2,0.5,0.1
		C26.1,81.4,26.1,81.2,25.8,81.2z M13.4,79.9L13.4,79.9C13.5,79.4,12.6,78.4,13.4,79.9z M39.4,60.2c0.5,0.1,1-0.1,1.2-0.5
		C40.1,59.5,39.6,59.8,39.4,60.2L39.4,60.2L39.4,60.2z M12.4,79c0-0.2-1.9,0.2,0,0.8C12.1,79.6,11.6,79.5,12.4,79z M15.5,79.2
		c-0.8,0.5-1,0.1-0.2,0.5c0-0.7,0.2-0.5-0.8-0.4C15.1,79.5,14.8,79.5,15.5,79.2z M33.1,81.2c-0.8-0.2-0.4,1.1,0.5,0.2
		C33.6,81.4,33.6,81.4,33.1,81.2z M49.4,65.4c0.1,0.1-0.1,0.5,0.4,0.9C50,66,50.2,66,49.4,65.4z M34.4,81.4L34.4,81.4
		C33,81.4,35.2,82.5,34.4,81.4z M8.1,23c0.2-0.1,0.6-0.2,0.9-0.5c-0.2-0.2,0-0.2-1,0.4C8,22.9,8,23,8.1,23L8.1,23z M35.5,81.4
		L35.5,81.4C34.1,81.4,36.4,82.5,35.5,81.4z M32.4,44.6C32.4,44.2,32.5,44.1,32.4,44.6C32.5,45.1,33.2,43,32.4,44.6z M35.4,65.2
		L35.4,65.2C36.1,64.8,32.6,63.9,35.4,65.2z M45,80.6c0.2-0.1,0.2-0.4-0.2-1C44.8,80,44.8,79.8,45,80.6z M11.2,65.1
		c-0.4-0.1-1,0.9-0.1,0.9C11,65.6,11.1,65.4,11.2,65.1z M40.4,60.4c0.2,0.1-0.2,1.5,0.4,1.5C40.9,61.5,40.9,61.2,40.4,60.4z
		 M31.2,45.8C31.4,45.2,31.5,45,31.2,45.8C31.2,46,32.4,44.8,31.2,45.8z M45.9,80.5c0.2-0.1,0.6-0.2,0-0.9
		C45.5,79.8,45.5,79.6,45.9,80.5z M14.2,79.2C14,79.5,14.1,79.9,14.2,79.2C14.2,78.9,12.9,79.6,14.2,79.2z M20,31.5
		C20.1,31.1,20.2,31,20,31.5C20,32,21,31.4,20,31.5z M48.4,65.2c-0.1,0.2,0,0,0.2,0.8C49,66.2,49.4,66,48.4,65.2z M19,34.6
		c0.1-0.5-1.1-0.1-0.1,0.5C18.9,35,19,35.1,19,34.6z M40.8,63.8c0.1-0.1-0.8-1.8-0.3,0C40.4,63.8,40.6,64.1,40.8,63.8z M48.2,64.5
		c0-0.2,0.6-0.8-1-1.6C47.4,63.6,48.2,63,48.2,64.5L48.2,64.5z M6.6,23.2c0.1,0,0.2,0,0.5-1C6.9,22.5,6.9,22.2,6.6,23.2L6.6,23.2z
		 M47.1,80c-0.2-0.5-0.5-0.6-0.9-0.5C46.5,79.4,46.4,80.5,47.1,80z M8.8,21.9c-0.1-0.1-0.6-0.1-1,0.8C8,22.5,7.9,22.4,8.8,21.9z
		 M20.2,60.8c0.1-0.4,0.1-0.8,0-1.1c-0.4,0.2-0.4,0.6-0.1,1L20.2,60.8L20.2,60.8z M36.6,41.8C36.5,42.1,36.2,42,36.6,41.8
		C36.5,41.5,35.8,40.9,36.6,41.8z M24.6,81.2C24.9,81.4,24.9,81.4,24.6,81.2C24.1,81.1,24.1,82.4,24.6,81.2z M38.1,60.6
		c-0.1,0-0.1-0.8-0.8-0.8C37.4,60.1,37.4,60.4,38.1,60.6z M23.2,81.8c0.1-0.1,0.3,0.2,0.8-0.2C23.8,81.1,24,81.2,23.2,81.8z
		 M7.6,17.4c0.1,0,0.5,0.1,0.8,0.1C8.5,17.2,8.6,17,7.6,17.4z M22.8,81.2c-0.5-0.1-0.6,1.1,0.3,0.1L22.8,81.2z M52,23.5
		c0.4,0-1-1-0.8-0.6C51.5,23.1,51.8,23.2,52,23.5z M37.4,81.4C37.8,81.4,37.8,81.5,37.4,81.4S37,82.2,37.4,81.4z M21.2,81.6
		c0.2,0.1,0,0,0.8-0.1C21.9,81.1,22,81.2,21.2,81.6z M40,61.6L40,61.6C40.6,61.5,39.5,59.6,40,61.6z M38.4,81.4
		C38.6,81.4,38.6,81.5,38.4,81.4C37.8,81.1,38,82.2,38.4,81.4z M36.5,81.4c-0.1,0.1-0.5,0.1-0.1,0.5C36.4,81.9,37.2,81.5,36.5,81.4z
		 M10,23.1c0-0.4-1.2-0.8-0.2,0.1C9.8,23.2,9.9,23.5,10,23.1z M20.2,81.8c0.1-0.1,0.3,0.2,0.8-0.2C20.9,81.1,21.1,81.2,20.2,81.8
		L20.2,81.8z M34.9,43.6C34.8,43.8,34.6,43.8,34.9,43.6C35.1,43.5,33.8,42.9,34.9,43.6z M47.1,79.4l0.4,0.4
		C47.8,80,48.1,79.9,47.1,79.4z M47.9,79.1c0,0,0.1,1,0.6,0.6C48.4,79.5,48.5,79.4,47.9,79.1z M42.9,44.8
		C42.9,45.1,42.6,45.1,42.9,44.8S42,44.6,42.9,44.8z M39.1,81.4c0,0.1-0.6,0-0.1,0.4C39,81.9,39.9,81.6,39.1,81.4L39.1,81.4z
		 M34.6,42.5C34.2,42.4,34.1,42.1,34.6,42.5C34.8,42.6,34.4,41.4,34.6,42.5z M47.8,64.6c0.2-0.2,0.4-0.7,0-1
		C47.6,64,47.6,64.4,47.8,64.6z M20.1,81.4c-0.6-0.1-0.6,0-0.8,0.2C19.8,81.8,20,81.6,20.1,81.4z M9.1,23.6c0.1-0.3,0.2-0.1-0.2-0.5
		C8.8,23.2,8.4,23.4,9.1,23.6z M40.2,81.8C39.9,81.8,39.9,81.6,40.2,81.8C40.8,81.6,39.6,81,40.2,81.8z M24.8,62.9c0,0.2,0,0,0,0.6
		C25.1,63.5,25.1,63.6,24.8,62.9z M18.5,81.6c0.4,0.1,0.6,0,0.6-0.2C18.5,81.2,18.5,81.4,18.5,81.6z M49.4,64.8
		c0.1-0.1,0.1-0.1,0-0.9C49.1,63.8,49.1,63.8,49.4,64.8z M41.8,77.2C41.9,77.5,41.8,77.8,41.8,77.2C41.4,77.2,41.4,78.8,41.8,77.2z
		 M10.9,64.1c-0.1-0.1,0.4-0.2-0.1-0.8C10.6,63.5,10.6,63.4,10.9,64.1z M41,81.4c-0.1,0.1-0.1,0-0.4,0.1
		C40.4,81.6,41.8,81.9,41,81.4z M20.6,63.5c0.1-0.1,0,0,0.2-0.6C20.6,62.9,20.5,62.8,20.6,63.5z M36.4,63.5
		c-0.1-0.1,0.2-0.2-0.1-0.6C36,63,36.1,62.9,36.4,63.5L36.4,63.5z M17.5,81.6c0.4,0,0.5,0,0.6-0.2C17.8,81.2,17.6,81.4,17.5,81.6z
		 M22.6,63.1l-0.2-0.2c0,0.1-0.3,0.1,0,0.6L22.6,63.1z M41.9,81.5c-0.1-0.1,0,0-0.2,0.1C41.8,81.9,42.5,81.5,41.9,81.5z M16.6,81.5
		c-0.4-0.1-0.5,0-0.6,0.2C16.2,81.8,16.5,81.6,16.6,81.5L16.6,81.5z M16.8,81.6c0.4,0.1,0.6,0,0.5-0.2
		C16.9,81.2,16.9,81.4,16.8,81.6L16.8,81.6z M27.6,63.2C27.5,63.4,27.4,63.4,27.6,63.2C27.6,63,26.9,62.8,27.6,63.2z M45.4,64.4
		L45.4,64.4C45.4,64.5,46.1,64.8,45.4,64.4z M43,81.6L43,81.6C43.4,81.6,42.2,81.2,43,81.6z M44.2,81.5c0,0,0-0.1-0.2,0.1
		c0.1,0,0,0.2,0.5,0C44.4,81.5,44.5,81.5,44.2,81.5L44.2,81.5z M7.1,73c0.1-0.1,0.1-0.4,0-0.6C7,72.5,7,72.8,7.1,73z M43.2,81.5
		c0,0.1-0.1,0.2,0.5,0.2C43.6,81.5,43.8,81.4,43.2,81.5z M31,25.6l-0.3-0.2c0,0.1-0.3,0.1,0,0.5L31,25.6z M15.8,81.4
		c-0.4,0-0.4,0-0.5,0.1C15.6,81.6,15.8,81.6,15.8,81.4z M34.2,63.5c0.1-0.2,0.1-0.5-0.1-0.8C34,63,34.1,63.2,34.2,63.5z M38.6,63.1
		c-0.1,0-0.1,0-0.1,0.4C38.8,63.4,38.6,63.5,38.6,63.1z M44.6,81.5L44.6,81.5C44.5,81.6,45.2,81.8,44.6,81.5z M15.1,81.4
		c-0.1,0-0.2,0-0.4,0.1C14.6,81.6,15,81.6,15.1,81.4z M39.6,70.6H40C40,70.4,40,70.4,39.6,70.6z"/>
	<path d="M25.2,12.2c0.5-0.6,3.1-2.2,3.3,0.1C27.6,11.4,27.4,12,25.2,12.2z"/>
	<path d="M35.8,12.2c-0.9-0.6-2.1,0-2.9,0.1C33.2,11.9,34.1,10.1,35.8,12.2z"/>
	<path d="M14.4,71.1c0-0.1-0.4-0.2,0.5-1.2C14.9,70.2,15.1,70.2,14.4,71.1z"/>
	<path d="M15.1,70.8c-0.1,0,0.1,0.9-0.4,0.9C14.6,71.5,14.5,71.2,15.1,70.8z"/>
	<path d="M15.4,71.2c-0.1,0,0.4,1.1-0.2,1.1C15.1,72.1,15.1,72,15.4,71.2z"/>
	<path d="M14.6,69.4c0.1,0.5-0.2,0.6-0.5,1C14,69.9,14.4,69.6,14.6,69.4z"/>
	<path d="M13.6,69c-0.2-0.1-0.2-0.5,0.1-1C13.8,68.2,13.9,68.1,13.6,69z"/>
	<path d="M14.2,68.8c0.1,0-0.5,1.5-0.5,0.4C14,69,13.8,69,14.2,68.8z"/>
	<path d="M13.5,67.5C13.1,67.5,13.1,67.6,13.5,67.5C13.5,67.4,13,68.6,13.5,67.5z"/>
	<path d="M12.9,67.1l-0.1,0.6C12.8,67.8,12.4,67.2,12.9,67.1z"/>
	<path d="M15.9,71.9c0-0.1,0.6,0.4,0.2,0.4C16.1,72.2,15.9,72.2,15.9,71.9z"/>
	<path d="M12.6,66.9l-0.2,0.6C12.4,67.2,12.1,67.2,12.6,66.9z"/>
	<path d="M41.1,69.4c-0.2,0-0.4-0.1-0.2-0.5l-0.4,0.2c0.3-0.2-0.2-1,1.5-1C41.2,68.8,42.8,69.2,41.1,69.4
		C41.5,69.4,41.5,68.5,41.1,69.4z"/>
	<path d="M43.8,71C44,70.9,44,70.8,43.8,71C43.6,71,43.6,70.4,43.8,71z"/>
	<path d="M30.8,65.1c9.1,0.4,8.8,13.5-0.1,13.8C21.9,78.6,21.8,65.5,30.8,65.1z M36.8,74.5l-3.1-1.2l-1.5-0.6c0.2,0.6,0,0,1.2,1.1
		C34.4,74.2,35.8,76.9,36.8,74.5z M27,77.2c0.5,0,0.3-0.2,1.2,0.8c0.6-1.5,1.2-3.1,1.8-4.8L27,77.2z M29.5,72.8l-4.6,2
		c0.4,0.2,0.4-0.1,0.8,1.2C27,75,28.2,73.9,29.5,72.8L29.5,72.8z M26.8,77.1l3-4L29.6,73C29.2,74,24.6,75.4,26.8,77.1L26.8,77.1z
		 M31.4,70.8c0.8-0.5,1.6-2.1,3.1-4c-0.4,0-0.4,0.2-1.2-0.8L31.4,70.8z M25.5,68.2c0,0.5,0.2,0.2-0.8,1.2c1.5,0.8,3.1,1.2,4.7,1.8
		C28.1,70.4,26.9,69.4,25.5,68.2L25.5,68.2z M28.2,66.1l2,4.6c0.1-1-0.4-2.6-0.6-5C29.4,66,29.6,66.1,28.2,66.1L28.2,66.1z
		 M29.8,71.1c-0.8-1-1.6-1.9-3.1-4c-0.1,0.5,0.2,0.4-1,1.1C27,69.2,28.4,70.1,29.8,71.1L29.8,71.1z M26.9,67l3.1,3.9h0.1l-2-4.6
		C27.9,66.6,28.1,66.6,26.9,67L26.9,67z M31.6,73.1c1.2,0.6,2.2,5.2,4.1,2.9C34.5,75,33.1,74,31.6,73.1L31.6,73.1z M29.9,78.5
		c0.1-0.6,0.1-1.2,0.4-3.4l0.3-1.6c-0.5,0.4,0,0-0.8,1.5C29.5,76.2,27.5,77.9,29.9,78.5L29.9,78.5z M29.4,72.1l-5-0.6
		C24.1,73.5,26.5,72.6,29.4,72.1L29.4,72.1z M35.9,68.2l-4,3c1,0,2.5-1,4.8-1.9C36.2,69.2,36.2,69.5,35.9,68.2L35.9,68.2z
		 M33.1,78.1c-0.6-1.6-1.2-3.1-2.1-4.6c0.1,1.2,0.4,2.5,0.6,5C32.1,78.1,31.8,78,33.1,78.1L33.1,78.1z M31.4,73.4l2,4.6
		c0.2-0.5-0.1-0.4,1.2-0.8C33.6,75.9,32.6,74.5,31.4,73.4L31.4,73.4z M30,65.6l0.8,5c0.4-0.9,0.4-2.6,0.8-5C31,66,31.2,66,30,65.6z
		 M37.1,71.2l-5,0.8c0.9,0.4,2.6,0.2,5,0.6C36.9,72.4,36.9,72.5,37.1,71.2z M31.8,71.1l4-3.1c-0.4-0.1-0.4,0.1-1-1
		C33.6,68.2,32.6,69.6,31.8,71.1L31.8,71.1z M31.5,78.5l-0.8-5c-0.4,0.9-0.4,2.6-0.8,5C30.5,78.2,30.2,78,31.5,78.5z M36.8,69.6
		l-4.6,2c1,0.1,2.6-0.4,5-0.6C36.8,70.8,36.6,70.9,36.8,69.6L36.8,69.6z M37.1,72.9l-5-0.6c0.8,0.6,2.5,1,4.6,2
		C36.5,73.9,36.5,73.5,37.1,72.9L37.1,72.9z M31.6,65.6c-0.3,1.6-0.4,3.4-0.4,5c0.5-1.1,0.9-2.4,1.9-4.8
		C32.6,66.1,32.8,66.4,31.6,65.6L31.6,65.6z M24.8,74.5l4.6-2c-1-0.2-2.6,0.4-5,0.6C24.8,73.5,24.8,73.1,24.8,74.5L24.8,74.5z
		 M24.4,71.2c1,0,2,0.1,3,0.4l1.8,0.2c0.2-0.4,0.2-0.1-1.4-0.8C26.6,70.8,24.8,68.9,24.4,71.2z M31.8,72.1c0-1.9-3.8-0.4-1,1
		C31.1,73,31.4,73,31.8,72.1L31.8,72.1z"/>
	<path d="M17.8,70.2L17.8,70.2C17.8,70.1,18.6,70.5,17.8,70.2z"/>
	<path d="M18.2,70.5L18.2,70.5C18.1,70.5,18.5,69.9,18.2,70.5z"/>
	<path d="M19.8,69.4L19.8,69.4C19.8,69.2,20.6,69.6,19.8,69.4z"/>
	<path d="M19.1,68.5L19.1,68.5C18.9,68.4,19.4,67.9,19.1,68.5z"/>
	<path d="M20.4,68.2L20.4,68.2C20.5,68.1,21.2,68.4,20.4,68.2z"/>
	<path d="M19.5,69.4L19.5,69.4C19.6,69.5,19.1,70,19.5,69.4z"/>
	<path d="M17.6,69.6L17.6,69.6C17.5,69.6,17.9,69,17.6,69.6z"/>
	<path d="M16.9,69.8C17.1,69.8,17.2,69.6,16.9,69.8C16.8,69.5,17.1,69.1,16.9,69.8z"/>
	<path d="M20,67.5C20.1,67.4,20.1,67.2,20,67.5S19.6,67,20,67.5z"/>
	<path d="M20.6,67.2c0.1,0.1-0.4,0.4-0.4,0H20.6z"/>
	<path d="M20.9,67.5L20.9,67.5C20.8,67.4,21.1,66.9,20.9,67.5z"/>
	<path d="M20.1,70.5L20.1,70.5C20.1,70.8,19.5,70.2,20.1,70.5z"/>
	<path d="M17.4,70.2v0.2C17.1,70.5,16.8,70.5,17.4,70.2z"/>
	<path d="M18.6,69.6L18.6,69.6C18.6,69.8,17.8,69.4,18.6,69.6z"/>
	<path d="M18.6,66.8L18.6,66.8C18.5,66.9,17.6,66.5,18.6,66.8z"/>
	<path d="M16.5,68.2L16.5,68.2C16.8,68.4,16.2,68.9,16.5,68.2z"/>
	<path d="M20.9,66.6L20.9,66.6C20.8,66.6,21.1,66.1,20.9,66.6z"/>
	<path d="M16.1,66.6L16.1,66.6C16.2,66.5,17,66.9,16.1,66.6z"/>
	<path d="M18.6,68.2L18.6,68.2C18.8,68.4,18.4,68.9,18.6,68.2z"/>
	<path d="M20.9,71.1L20.9,71.1C20.8,71.2,20,71,20.9,71.1z"/>
	<path d="M16.1,67.5L16.1,67.5C16,67.5,16.4,67,16.1,67.5z"/>
	<path d="M19.1,70.5L19.1,70.5C18.9,70.4,19.4,69.9,19.1,70.5z"/>
	<path d="M17,67.5L17,67.5C16.8,67.5,17.2,67,17,67.5z"/>
	<path d="M18.2,67.2L18.2,67.2C18.2,67.1,19.1,67.5,18.2,67.2z"/>
	<path d="M19,67.5L19,67.5C18.9,67.5,19.2,67,19,67.5z"/>
	<path d="M19.1,66.5L19.1,66.5C19.1,66.4,20,66.6,19.1,66.5z"/>
	<path d="M22.4,66.4L22.4,66.4C22.4,66.2,23.2,66.6,22.4,66.4z"/>
	<path d="M21.9,66.5L21.9,66.5C22,66.5,21.6,67,21.9,66.5z"/>
	<path d="M17.6,67.5L17.6,67.5C17.5,67.5,17.9,67,17.6,67.5z"/>
	<path d="M19.5,70.9L19.5,70.9C19.6,71,19.2,71.5,19.5,70.9z"/>
	<path d="M17.6,66.9L17.6,66.9C17.5,66.8,17.9,66.2,17.6,66.9z"/>
	<path d="M17.2,66.6L17.2,66.6C17.4,66.8,17,67.2,17.2,66.6z"/>
	<path d="M19.8,66.6L19.8,66.6C19.6,66.6,20,66.1,19.8,66.6z"/>
	<path d="M20.6,66.5L20.6,66.5C20.9,66.5,20.4,67,20.6,66.5z"/>
	<path d="M17.4,68.5L17.4,68.5C17.4,68.8,16.4,68.4,17.4,68.5z"/>
	<path d="M20.1,68.2L20.1,68.2C20.2,68.4,19.9,68.9,20.1,68.2z"/>
	<path d="M20.1,71.1L20.1,71.1C20,71.2,19.2,70.9,20.1,71.1z"/>
	<path d="M18,68.5L18,68.5C18,68.8,17,68.4,18,68.5z"/>
	<path d="M16.4,77.9v-0.2C16.5,77.4,17,78,16.4,77.9z"/>
	<path d="M18.2,77.9v-0.2C18.4,77.4,18.9,78,18.2,77.9z"/>
	<path d="M17.4,78L17.4,78C17,78.1,16.8,77.5,17.4,78z"/>
	<path d="M16,77.9L16,77.9C15.9,78.1,15.4,77.5,16,77.9z"/>
	<path d="M17.6,77.6L17.6,77.6C17.6,77.5,18.6,77.9,17.6,77.6z"/>
	<path d="M19.4,77.6L19.4,77.6C19.5,77.8,19,78.4,19.4,77.6z"/>
	<path d="M20.1,77.6L20.1,77.6C20.2,77.8,19.8,78.4,20.1,77.6z"/>
	<path d="M15,77.6L15,77.6C15,77.5,15.9,77.9,15,77.6z"/>
	<path d="M13.9,78.6L13.9,78.6C13.9,78.8,13,78.4,13.9,78.6z"/>
	<path d="M17.4,78.8L17.4,78.8C17.2,78.9,16.4,78.5,17.4,78.8z"/>
	<path d="M16.4,78.5L16.4,78.5C16.4,78.2,17.2,78.8,16.4,78.5z"/>
	<path d="M18.6,77.1L18.6,77.1C18.5,77.2,17.6,76.9,18.6,77.1z"/>
	<path d="M18.2,78.8L18.2,78.8C18,78.6,18.5,78,18.2,78.8z"/>
	<path d="M16.8,76.8L16.8,76.8C16.9,76.8,16.4,77.4,16.8,76.8z"/>
	<path d="M15.6,76.8L15.6,76.8C15.6,76.6,16.6,77,15.6,76.8z"/>
	<path d="M17.2,76.9L17.2,76.9C17.4,76.9,16.9,77.5,17.2,76.9z"/>
	<path d="M14.6,77L14.6,77C14.4,77.1,13.8,76.6,14.6,77z"/>
	<path d="M14.6,75.9v0.4C14.4,76.1,13.9,76.1,14.6,75.9z"/>
	<path d="M15.4,76.6L15.4,76.6C15.5,76.8,15.1,77.4,15.4,76.6z"/>
	<path d="M13.5,77L13.5,77C13.4,76.9,13.9,76.2,13.5,77z"/>
	<path d="M12.8,76.9L12.8,76.9C12.6,76.9,13.1,76.1,12.8,76.9z"/>
	<path d="M19.8,78.5L19.8,78.5C19.8,78.4,20.6,78.6,19.8,78.5z"/>
	<path d="M18,78.5L18,78.5C18.1,78.6,17.8,79.1,18,78.5z"/>
	<path d="M16,78.8L16,78.8C16,78.9,15.1,78.5,16,78.8z"/>
	<path d="M15.4,78.5L15.4,78.5C15.5,78.5,15.1,79.1,15.4,78.5z"/>
	<path d="M19.4,78.5L19.4,78.5C19.5,78.5,19,79.1,19.4,78.5z"/>
	<path d="M14.2,77.8L14.2,77.8C14.1,77.8,14.8,77.1,14.2,77.8z"/>
	<path d="M17.5,76.8h0.4C17.9,77.1,17.9,77.2,17.5,76.8z"/>
	<path d="M14.8,78.8L14.8,78.8C14.8,78.9,13.9,78.5,14.8,78.8z"/>
	<path d="M13.9,77.8L13.9,77.8C13.9,77.9,13,77.5,13.9,77.8z"/>
	<path d="M15.2,75.9L15.2,75.9C15.5,76,15,76.6,15.2,75.9z"/>
	<path d="M36.5,78.8L36.5,78.8C36.6,78.8,36.2,79.2,36.5,78.8z"/>
	<path d="M36.9,78.1v-0.2C37,77.6,37.5,78.1,36.9,78.1z"/>
	<path d="M38.8,77L38.8,77C38.8,77.1,37.9,76.8,38.8,77z"/>
	<path d="M38.4,78.6L38.4,78.6C38.5,78.5,39.2,78.9,38.4,78.6z"/>
	<path d="M38.8,75.9L38.8,75.9C38.9,76,38.5,76.5,38.8,75.9z"/>
	<path d="M37.4,78.6L37.4,78.6C37.5,78.8,37,79.2,37.4,78.6z"/>
	<path d="M37.6,78.9L37.6,78.9C37.5,78.8,37.9,78.2,37.6,78.9z"/>
	<path d="M38,76.8L38,76.8C38.1,76.9,37.8,77.4,38,76.8z"/>
	<path d="M39.4,77L39.4,77C39.4,77.2,38.5,76.9,39.4,77z"/>
	<path d="M40.2,75.9L40.2,75.9C40.4,76,40,76.5,40.2,75.9z"/>
	<path d="M39,78L39,78C38.8,77.9,39.2,77.4,39,78z"/>
	<path d="M39.2,74.1L39.2,74.1C39.4,74,40.2,74.4,39.2,74.1z"/>
	<path d="M39.5,75.1L39.5,75.1C39.8,75.2,39.2,75.8,39.5,75.1z"/>
	<path d="M38.6,77.8L38.6,77.8C38.8,77.8,38.4,78.4,38.6,77.8z"/>
	<path d="M39.5,75.9L39.5,75.9C39.6,76,39.2,76.5,39.5,75.9z"/>
	<path d="M37.6,77.9L37.6,77.9C37.6,77.6,38.6,78,37.6,77.9z"/>
	<path d="M32.9,22.2c0-0.4,0.5-0.1,0.6-1.8C33.6,20.9,34.2,21.6,32.9,22.2z"/>
	<path d="M28.2,20.9c0,0.4,0,0.3,0.4,1.2C28.1,21.9,28.1,22.1,28.2,20.9z"/>
	<path d="M46.5,71.1L46.5,71.1C46.5,71.2,45.6,70.9,46.5,71.1z"/>
	<path d="M43.9,67.5L43.9,67.5C43.9,67.2,44.8,67.8,43.9,67.5z"/>
	<path d="M44.9,68.8L44.9,68.8C44.8,68.9,44,68.5,44.9,68.8z"/>
	<path d="M44.5,67.5h0.4C44.8,67.8,44.8,68,44.5,67.5z"/>
	<path d="M43.2,67L43.2,67C43.1,66.9,43.5,66.1,43.2,67z"/>
	<path d="M45.2,67.9L45.2,67.9C45,67.9,45.5,67.1,45.2,67.9z"/>
	<path d="M46.1,68.9L46.1,68.9C46,68.8,46.4,68,46.1,68.9z"/>
	<path d="M47.2,68.6L47.2,68.6C47.4,68.6,47,69.4,47.2,68.6z"/>
	<path d="M46.5,69.4L46.5,69.4C46.8,69.5,46.2,70.2,46.5,69.4z"/>
	<path d="M46.5,70.4L46.5,70.4C46.5,70.6,45.6,70.1,46.5,70.4z"/>
	<path d="M45.2,68.5L45.2,68.5C45.2,68.4,46.1,68.8,45.2,68.5z"/>
	<path d="M22.8,74.2L22.8,74.2C22.6,74.4,21.8,74,22.8,74.2z"/>
	<path d="M22,74L22,74C22.1,74,21.8,74.8,22,74z"/>
	<path d="M22.5,74.8L22.5,74.8C22.6,74.6,23.5,75,22.5,74.8z"/>
	<path d="M20.9,73.6L20.9,73.6C20.8,73.5,21.1,72.9,20.9,73.6z"/>
	<path d="M21.8,75L21.8,75C21.8,74.8,22.8,75.2,21.8,75z"/>
	<path d="M22,73.6L22,73.6C22,73.8,21.1,73.4,22,73.6z"/>
	<path d="M23.4,76.8L23.4,76.8C23.4,76.6,24.2,77,23.4,76.8z"/>
	<path d="M30.6,20c0.1,0.6-1,0.8-0.9-0.2c0.2,0.2,0.4,0.8,0.8-0.1C30.5,19.6,30.5,19.6,30.6,20z"/>
	<path d="M37.9,66.8L37.9,66.8C37.8,66.8,38.1,65.9,37.9,66.8z"/>
	<path d="M38.8,69.4L38.8,69.4C38.6,69.2,39,68.5,38.8,69.4z"/>
	<path d="M38.6,67.6L38.6,67.6C38.4,67.5,38.9,66.8,38.6,67.6z"/>
	<path d="M39,66.5L39,66.5C39.1,66.5,38.6,67.2,39,66.5z"/>
	<path d="M39,68.4L39,68.4C39,68.5,38.1,68.1,39,68.4z"/>
	<path d="M44.4,76.2L44.4,76.2C44.5,76.1,45.4,76.6,44.4,76.2z"/>
	<path d="M44.6,77.1L44.6,77.1C44.8,77.2,44.4,78,44.6,77.1z"/>
	<path d="M44.5,78.2L44.5,78.2C44.5,78.4,43.6,78,44.5,78.2z"/>
	<path d="M31.4,72C31.1,71.4,30.8,71.4,31.4,72c-1.4-0.4-1.4,0-0.6-0.6C31.5,72,30.9,73.5,31.4,72z"/>
	<path d="M16.9,93.2c-0.4-0.4-0.6-1-0.8-1.6c0-0.1,0-0.1,0-0.2c0,0,0-0.3,0.6-0.2h2v-0.4h-2.6c-0.2,0-0.5,0.1-0.6,0.2
		c-0.1,0.2-0.2,0.5-0.2,0.8c0,0.5,0.1,0.9,0.5,1.4c0.1,0.2,0.2,0.4,0.4,0.5l0.4,0.4l0.5,0.5c0.1,0.1,0.3,0.1,0.4,0l0.4-0.5
		C17.6,94,16.9,93.2,16.9,93.2z"/>
	<path d="M26.4,89.1l-2-2.5H24L23.6,87l2.1,2.1h-17v0.5h2.4v1.6c-0.2,0.2-0.4,0.2-0.6,0l-0.2-0.5c-0.1-0.2-0.2-0.1-0.4,0L9.5,91
		c0.3,0.8,2.1,3.5,2.6,3.4l0.4-0.4c-0.4-0.6-1.1-1.4-1.5-2c0.3,0,1,0.1,1-0.4l0,0l0.1,0.1h1.4v2.6h0.9v-4.7l4.4,0
		c1,0.5,1.3,1.3,0.2,1.8c-0.3,0.1-0.7,0.2-1,0.1c0,1.5,1.9,2.2,3.1,1.8v1.2H22v-4.9h1.5v1.9c-1.2-0.2-0.4,0.8,0.1,1.2
		c0.2,0.2,0.6,0.1,0.9,0.1V92H26v2.5h0.9v-4.9H30c-0.1,0.7,0.3,2.7-0.5,3c-0.2,0.1-0.4,0.1-0.6-0.1c-1.1-1-0.2-2.2,1.1-1.9l-0.1-0.5
		c-3.5-0.7-3.2,3.8,0.1,2.8v1.2h0.9v-4.5h0.9v-0.5H26.4z M13.5,91.4H12v-1.8h1.5V91.4z M21.1,92.1c-0.1,0.5-0.5,0.7-1,0.7
		c-0.4,0-0.8-0.4-0.9-0.7l0,0v-0.2c0.7-0.1,1.4-0.8,1.2-1.5c-0.1-0.4-0.5-0.8-0.7-0.8h1.4V92.1z M25.9,91.4h-1.4v-1.8h1.4V91.4z"/>
	<path d="M50.4,89.1l-2-2.5H48L47.6,87l2.1,2.1H34.9v0.5H40v1h-2.5l0.1,0.3l0.2,0.4c0.3,0.4,0.3,0.8,0.4,1.1c0.1,0.7-1,0.7-1.2-0.1
		c-0.3-0.4-0.4-0.8-0.5-1.1l-0.2-0.6h-0.4l-0.4,0.2c0,0,0.4,1.2,0.5,1.5c0.3,0.8,0.9,1.1,1.6,1.2c0,0,0.8,0,0.9-0.1
		c0.4-0.1,0.6-0.5,0.6-0.9L39,91.6c0,0-0.3-0.6-0.3-0.7H40V94h0.9v-4.4h1.6h0.2c0.1,0.2,0.4,0.3,0.5,0.4c0.6,0.5-0.5,1.4-0.8,1.3
		c-0.4-0.3-0.7-0.2-0.9,0c-0.1,0.7,0,1,0.4,1.4c1.1,1,2.7,0.7,2.7,0.3v1.2h0.9v-4.8h3.9v1H47c-0.4,0.2-0.5,0.6-0.5,1
		c0,0.5,0.1,1,0.4,1.4l0.9,1.2c0.2,0.2,0.4,0.2,0.5,0.1l0.4-0.4c-0.3,0-0.5-0.4-1-1c-0.1-0.1-0.5-1-0.5-1.4c0-0.4,0.2-0.6,0.6-0.7
		h1.8v3.4h0.7v-4.6h0.9v-0.5L50.4,89.1z M45,92.1c-0.3,0.3-0.6,0.5-1,0.5c-0.5,0.2-1.1-0.4-1-0.6l0.1-0.2l0.6-0.2
		c0.4-0.2,0.6-0.6,0.6-1v-0.2c-0.1-0.5-0.4-0.7-0.8-0.8H45V92.1z"/>
</g>
</svg>
